<?xml version="1.0" encoding="UTF-8" standalone="no"?>
<!DOCTYPE svg PUBLIC "-//W3C//DTD SVG 1.1//EN"
 "http://www.w3.org/Graphics/SVG/1.1/DTD/svg11.dtd">
<!-- Generated by graphviz version 2.47.0 (20210316.0004)
 -->
<!-- Title: dependencies Pages: 1 -->
<svg width="504pt" height="284pt"
 viewBox="0.00 0.00 504.00 284.00" xmlns="http://www.w3.org/2000/svg" xmlns:xlink="http://www.w3.org/1999/xlink">
<g id="graph0" class="graph" transform="scale(1 1) rotate(0) translate(4 280)">
<title>dependencies</title>
<polygon fill="white" stroke="transparent" points="-4,4 -4,-280 500,-280 500,4 -4,4"/>
<text text-anchor="start" x="227.01" y="-42.4" font-family="Times-12" font-weight="bold" font-size="14.00">Legend</text>
<polygon fill="#ffffb3" stroke="transparent" points="14,-10 14,-30 34,-30 34,-10 14,-10"/>
<text text-anchor="start" x="37.63" y="-15.4" font-family="Times-12" font-size="14.00"> &#160;Declarations</text>
<polygon fill="#8dd3c7" stroke="transparent" points="127,-10 127,-30 147,-30 147,-10 127,-10"/>
<text text-anchor="start" x="150.73" y="-15.4" font-family="Times-12" font-size="14.00"> &#160;Module</text>
<polygon fill="#80b1d3" stroke="transparent" points="213,-10 213,-30 233,-30 233,-10 213,-10"/>
<text text-anchor="start" x="236.78" y="-15.4" font-family="Times-12" font-size="14.00"> &#160;Bootstrap</text>
<polygon fill="#fdb462" stroke="transparent" points="310,-10 310,-30 330,-30 330,-10 310,-10"/>
<text text-anchor="start" x="333.67" y="-15.4" font-family="Times-12" font-size="14.00"> &#160;Providers</text>
<polygon fill="#fb8072" stroke="transparent" points="406,-10 406,-30 426,-30 426,-10 406,-10"/>
<text text-anchor="start" x="429.73" y="-15.4" font-family="Times-12" font-size="14.00"> &#160;Exports</text>
<g id="clust1" class="cluster">
<title>cluster_BranchModule</title>
<polygon fill="none" stroke="black" stroke-dasharray="1,5" points="106,-70 106,-268 390,-268 390,-70 106,-70"/>
</g>
<g id="clust6" class="cluster">
<title>cluster_BranchModule_providers</title>
<polygon fill="none" stroke="black" points="230,-78 230,-130 382,-130 382,-78 230,-78"/>
</g>
<g id="clust4" class="cluster">
<title>cluster_BranchModule_exports</title>
<polygon fill="none" stroke="black" points="180,-208 180,-260 298,-260 298,-208 180,-208"/>
</g>
<g id="clust3" class="cluster">
<title>cluster_BranchModule_imports</title>
<polygon fill="none" stroke="black" points="114,-78 114,-130 222,-130 222,-78 114,-78"/>
</g>
<!-- UsersModule -->
<g id="node1" class="node">
<title>UsersModule</title>
<polygon fill="#8dd3c7" stroke="black" points="213.92,-122 210.92,-126 189.92,-126 186.92,-122 122.08,-122 122.08,-86 213.92,-86 213.92,-122"/>
<text text-anchor="middle" x="168" y="-99.8" font-family="Times,serif" font-size="14.00">UsersModule</text>
</g>
<!-- BranchModule -->
<g id="node2" class="node">
<title>BranchModule</title>
<polygon fill="#8dd3c7" stroke="black" points="288.98,-187 285.98,-191 264.98,-191 261.98,-187 189.02,-187 189.02,-151 288.98,-151 288.98,-187"/>
<text text-anchor="middle" x="239" y="-164.8" font-family="Times,serif" font-size="14.00">BranchModule</text>
</g>
<!-- UsersModule&#45;&gt;BranchModule -->
<g id="edge1" class="edge">
<title>UsersModule&#45;&gt;BranchModule</title>
<path fill="none" stroke="black" d="M201.36,-122.11C201.36,-122.11 201.36,-140.99 201.36,-140.99"/>
<polygon fill="black" stroke="black" points="197.86,-140.99 201.36,-150.99 204.86,-140.99 197.86,-140.99"/>
</g>
<!-- BranchService  -->
<g id="node3" class="node">
<title>BranchService </title>
<polygon fill="#fb8072" stroke="black" points="289.9,-252 188.1,-252 188.1,-216 289.9,-216 289.9,-252"/>
<text text-anchor="middle" x="239" y="-229.8" font-family="Times,serif" font-size="14.00">BranchService </text>
</g>
<!-- BranchModule&#45;&gt;BranchService  -->
<g id="edge2" class="edge">
<title>BranchModule&#45;&gt;BranchService </title>
<path fill="none" stroke="black" stroke-dasharray="5,2" d="M239,-187.11C239,-187.11 239,-205.99 239,-205.99"/>
<polygon fill="black" stroke="black" points="235.5,-205.99 239,-215.99 242.5,-205.99 235.5,-205.99"/>
</g>
<!-- BranchService -->
<g id="node4" class="node">
<title>BranchService</title>
<ellipse fill="#fdb462" stroke="black" cx="306" cy="-104" rx="67.75" ry="18"/>
<text text-anchor="middle" x="306" y="-99.8" font-family="Times,serif" font-size="14.00">BranchService</text>
</g>
<!-- BranchService&#45;&gt;BranchModule -->
<g id="edge3" class="edge">
<title>BranchService&#45;&gt;BranchModule</title>
<path fill="none" stroke="black" d="M263.56,-118.1C263.56,-118.1 263.56,-140.72 263.56,-140.72"/>
<polygon fill="black" stroke="black" points="260.06,-140.72 263.56,-150.72 267.06,-140.72 260.06,-140.72"/>
</g>
</g>
</svg>
