<?xml version="1.0" encoding="UTF-8" standalone="no"?>
<!DOCTYPE svg PUBLIC "-//W3C//DTD SVG 1.1//EN"
 "http://www.w3.org/Graphics/SVG/1.1/DTD/svg11.dtd">
<!-- Generated by graphviz version 2.47.0 (20210316.0004)
 -->
<!-- Title: dependencies Pages: 1 -->
<svg width="554pt" height="284pt"
 viewBox="0.00 0.00 554.00 284.00" xmlns="http://www.w3.org/2000/svg" xmlns:xlink="http://www.w3.org/1999/xlink">
<g id="graph0" class="graph" transform="scale(1 1) rotate(0) translate(4 280)">
<title>dependencies</title>
<polygon fill="white" stroke="transparent" points="-4,4 -4,-280 550,-280 550,4 -4,4"/>
<text text-anchor="start" x="252.01" y="-42.4" font-family="Times-12" font-weight="bold" font-size="14.00">Legend</text>
<polygon fill="#ffffb3" stroke="transparent" points="39,-10 39,-30 59,-30 59,-10 39,-10"/>
<text text-anchor="start" x="62.63" y="-15.4" font-family="Times-12" font-size="14.00"> &#160;Declarations</text>
<polygon fill="#8dd3c7" stroke="transparent" points="152,-10 152,-30 172,-30 172,-10 152,-10"/>
<text text-anchor="start" x="175.73" y="-15.4" font-family="Times-12" font-size="14.00"> &#160;Module</text>
<polygon fill="#80b1d3" stroke="transparent" points="238,-10 238,-30 258,-30 258,-10 238,-10"/>
<text text-anchor="start" x="261.78" y="-15.4" font-family="Times-12" font-size="14.00"> &#160;Bootstrap</text>
<polygon fill="#fdb462" stroke="transparent" points="335,-10 335,-30 355,-30 355,-10 335,-10"/>
<text text-anchor="start" x="358.67" y="-15.4" font-family="Times-12" font-size="14.00"> &#160;Providers</text>
<polygon fill="#fb8072" stroke="transparent" points="431,-10 431,-30 451,-30 451,-10 431,-10"/>
<text text-anchor="start" x="454.73" y="-15.4" font-family="Times-12" font-size="14.00"> &#160;Exports</text>
<g id="clust1" class="cluster">
<title>cluster_OrderModule</title>
<polygon fill="none" stroke="black" stroke-dasharray="1,5" points="8,-70 8,-268 538,-268 538,-70 8,-70"/>
</g>
<g id="clust6" class="cluster">
<title>cluster_OrderModule_providers</title>
<polygon fill="none" stroke="black" points="388,-78 388,-130 530,-130 530,-78 388,-78"/>
</g>
<g id="clust4" class="cluster">
<title>cluster_OrderModule_exports</title>
<polygon fill="none" stroke="black" points="204,-208 204,-260 314,-260 314,-208 204,-208"/>
</g>
<g id="clust3" class="cluster">
<title>cluster_OrderModule_imports</title>
<polygon fill="none" stroke="black" points="16,-78 16,-130 380,-130 380,-78 16,-78"/>
</g>
<!-- BranchModule -->
<g id="node1" class="node">
<title>BranchModule</title>
<polygon fill="#8dd3c7" stroke="black" points="371.98,-122 368.98,-126 347.98,-126 344.98,-122 272.02,-122 272.02,-86 371.98,-86 371.98,-122"/>
<text text-anchor="middle" x="322" y="-99.8" font-family="Times,serif" font-size="14.00">BranchModule</text>
</g>
<!-- OrderModule -->
<g id="node4" class="node">
<title>OrderModule</title>
<polygon fill="#8dd3c7" stroke="black" points="305.19,-187 302.19,-191 281.19,-191 278.19,-187 212.81,-187 212.81,-151 305.19,-151 305.19,-187"/>
<text text-anchor="middle" x="259" y="-164.8" font-family="Times,serif" font-size="14.00">OrderModule</text>
</g>
<!-- BranchModule&#45;&gt;OrderModule -->
<g id="edge1" class="edge">
<title>BranchModule&#45;&gt;OrderModule</title>
<path fill="none" stroke="black" d="M288.55,-122.11C288.55,-122.11 288.55,-140.99 288.55,-140.99"/>
<polygon fill="black" stroke="black" points="285.05,-140.99 288.55,-150.99 292.05,-140.99 285.05,-140.99"/>
</g>
<!-- EmployeeModule -->
<g id="node2" class="node">
<title>EmployeeModule</title>
<polygon fill="#8dd3c7" stroke="black" points="254.31,-122 251.31,-126 230.31,-126 227.31,-122 137.69,-122 137.69,-86 254.31,-86 254.31,-122"/>
<text text-anchor="middle" x="196" y="-99.8" font-family="Times,serif" font-size="14.00">EmployeeModule</text>
</g>
<!-- EmployeeModule&#45;&gt;OrderModule -->
<g id="edge2" class="edge">
<title>EmployeeModule&#45;&gt;OrderModule</title>
<path fill="none" stroke="black" d="M233.53,-122.11C233.53,-122.11 233.53,-140.99 233.53,-140.99"/>
<polygon fill="black" stroke="black" points="230.03,-140.99 233.53,-150.99 237.03,-140.99 230.03,-140.99"/>
</g>
<!-- OffersModule -->
<g id="node3" class="node">
<title>OffersModule</title>
<polygon fill="#8dd3c7" stroke="black" points="119.8,-122 116.8,-126 95.8,-126 92.8,-122 24.2,-122 24.2,-86 119.8,-86 119.8,-122"/>
<text text-anchor="middle" x="72" y="-99.8" font-family="Times,serif" font-size="14.00">OffersModule</text>
</g>
<!-- OffersModule&#45;&gt;OrderModule -->
<g id="edge3" class="edge">
<title>OffersModule&#45;&gt;OrderModule</title>
<path fill="none" stroke="black" d="M72,-122.11C72,-141.34 72,-169 72,-169 72,-169 202.78,-169 202.78,-169"/>
<polygon fill="black" stroke="black" points="202.78,-172.5 212.78,-169 202.78,-165.5 202.78,-172.5"/>
</g>
<!-- OrderService  -->
<g id="node5" class="node">
<title>OrderService </title>
<polygon fill="#fb8072" stroke="black" points="306.12,-252 211.88,-252 211.88,-216 306.12,-216 306.12,-252"/>
<text text-anchor="middle" x="259" y="-229.8" font-family="Times,serif" font-size="14.00">OrderService </text>
</g>
<!-- OrderModule&#45;&gt;OrderService  -->
<g id="edge4" class="edge">
<title>OrderModule&#45;&gt;OrderService </title>
<path fill="none" stroke="black" stroke-dasharray="5,2" d="M259,-187.11C259,-187.11 259,-205.99 259,-205.99"/>
<polygon fill="black" stroke="black" points="255.5,-205.99 259,-215.99 262.5,-205.99 255.5,-205.99"/>
</g>
<!-- OrderService -->
<g id="node6" class="node">
<title>OrderService</title>
<ellipse fill="#fdb462" stroke="black" cx="459" cy="-104" rx="62.52" ry="18"/>
<text text-anchor="middle" x="459" y="-99.8" font-family="Times,serif" font-size="14.00">OrderService</text>
</g>
<!-- OrderService&#45;&gt;OrderModule -->
<g id="edge5" class="edge">
<title>OrderService&#45;&gt;OrderModule</title>
<path fill="none" stroke="black" d="M459,-122.11C459,-141.34 459,-169 459,-169 459,-169 315.14,-169 315.14,-169"/>
<polygon fill="black" stroke="black" points="315.14,-165.5 305.14,-169 315.14,-172.5 315.14,-165.5"/>
</g>
</g>
</svg>
