<?xml version="1.0" encoding="UTF-8" standalone="no"?>
<!DOCTYPE svg PUBLIC "-//W3C//DTD SVG 1.1//EN"
 "http://www.w3.org/Graphics/SVG/1.1/DTD/svg11.dtd">
<!-- Generated by graphviz version 2.47.0 (20210316.0004)
 -->
<!-- Title: dependencies Pages: 1 -->
<svg width="1579pt" height="284pt"
 viewBox="0.00 0.00 1579.00 284.00" xmlns="http://www.w3.org/2000/svg" xmlns:xlink="http://www.w3.org/1999/xlink">
<g id="graph0" class="graph" transform="scale(1 1) rotate(0) translate(4 280)">
<title>dependencies</title>
<polygon fill="white" stroke="transparent" points="-4,4 -4,-280 1575,-280 1575,4 -4,4"/>
<text text-anchor="start" x="764.51" y="-42.4" font-family="Times-12" font-weight="bold" font-size="14.00">Legend</text>
<polygon fill="#ffffb3" stroke="transparent" points="551.5,-10 551.5,-30 571.5,-30 571.5,-10 551.5,-10"/>
<text text-anchor="start" x="575.13" y="-15.4" font-family="Times-12" font-size="14.00"> &#160;Declarations</text>
<polygon fill="#8dd3c7" stroke="transparent" points="664.5,-10 664.5,-30 684.5,-30 684.5,-10 664.5,-10"/>
<text text-anchor="start" x="688.23" y="-15.4" font-family="Times-12" font-size="14.00"> &#160;Module</text>
<polygon fill="#80b1d3" stroke="transparent" points="750.5,-10 750.5,-30 770.5,-30 770.5,-10 750.5,-10"/>
<text text-anchor="start" x="774.28" y="-15.4" font-family="Times-12" font-size="14.00"> &#160;Bootstrap</text>
<polygon fill="#fdb462" stroke="transparent" points="847.5,-10 847.5,-30 867.5,-30 867.5,-10 847.5,-10"/>
<text text-anchor="start" x="871.17" y="-15.4" font-family="Times-12" font-size="14.00"> &#160;Providers</text>
<polygon fill="#fb8072" stroke="transparent" points="943.5,-10 943.5,-30 963.5,-30 963.5,-10 943.5,-10"/>
<text text-anchor="start" x="967.23" y="-15.4" font-family="Times-12" font-size="14.00"> &#160;Exports</text>
<g id="clust1" class="cluster">
<title>cluster_OrderModule</title>
<polygon fill="none" stroke="black" stroke-dasharray="1,5" points="8,-70 8,-268 1563,-268 1563,-70 8,-70"/>
</g>
<g id="clust6" class="cluster">
<title>cluster_OrderModule_providers</title>
<polygon fill="none" stroke="black" points="763,-78 763,-130 1555,-130 1555,-78 763,-78"/>
</g>
<g id="clust4" class="cluster">
<title>cluster_OrderModule_exports</title>
<polygon fill="none" stroke="black" points="642,-208 642,-260 752,-260 752,-208 642,-208"/>
</g>
<g id="clust3" class="cluster">
<title>cluster_OrderModule_imports</title>
<polygon fill="none" stroke="black" points="16,-78 16,-130 755,-130 755,-78 16,-78"/>
</g>
<!-- BranchModule -->
<g id="node1" class="node">
<title>BranchModule</title>
<polygon fill="#8dd3c7" stroke="black" points="746.98,-122 743.98,-126 722.98,-126 719.98,-122 647.02,-122 647.02,-86 746.98,-86 746.98,-122"/>
<text text-anchor="middle" x="697" y="-99.8" font-family="Times,serif" font-size="14.00">BranchModule</text>
</g>
<!-- OrderModule -->
<g id="node7" class="node">
<title>OrderModule</title>
<polygon fill="#8dd3c7" stroke="black" points="743.19,-187 740.19,-191 719.19,-191 716.19,-187 650.81,-187 650.81,-151 743.19,-151 743.19,-187"/>
<text text-anchor="middle" x="697" y="-164.8" font-family="Times,serif" font-size="14.00">OrderModule</text>
</g>
<!-- BranchModule&#45;&gt;OrderModule -->
<g id="edge1" class="edge">
<title>BranchModule&#45;&gt;OrderModule</title>
<path fill="none" stroke="black" d="M697,-122.11C697,-122.11 697,-140.99 697,-140.99"/>
<polygon fill="black" stroke="black" points="693.5,-140.99 697,-150.99 700.5,-140.99 693.5,-140.99"/>
</g>
<!-- CouponModule -->
<g id="node2" class="node">
<title>CouponModule</title>
<polygon fill="#8dd3c7" stroke="black" points="628.89,-122 625.89,-126 604.89,-126 601.89,-122 525.11,-122 525.11,-86 628.89,-86 628.89,-122"/>
<text text-anchor="middle" x="577" y="-99.8" font-family="Times,serif" font-size="14.00">CouponModule</text>
</g>
<!-- CouponModule&#45;&gt;OrderModule -->
<g id="edge2" class="edge">
<title>CouponModule&#45;&gt;OrderModule</title>
<path fill="none" stroke="black" d="M577,-122.24C577,-137.57 577,-157 577,-157 577,-157 640.6,-157 640.6,-157"/>
<polygon fill="black" stroke="black" points="640.6,-160.5 650.6,-157 640.6,-153.5 640.6,-160.5"/>
</g>
<!-- CustomerModule -->
<g id="node3" class="node">
<title>CustomerModule</title>
<polygon fill="#8dd3c7" stroke="black" points="506.99,-122 503.99,-126 482.99,-126 479.99,-122 393.01,-122 393.01,-86 506.99,-86 506.99,-122"/>
<text text-anchor="middle" x="450" y="-99.8" font-family="Times,serif" font-size="14.00">CustomerModule</text>
</g>
<!-- CustomerModule&#45;&gt;OrderModule -->
<g id="edge3" class="edge">
<title>CustomerModule&#45;&gt;OrderModule</title>
<path fill="none" stroke="black" d="M450,-122.02C450,-139.37 450,-163 450,-163 450,-163 640.83,-163 640.83,-163"/>
<polygon fill="black" stroke="black" points="640.83,-166.5 650.83,-163 640.83,-159.5 640.83,-166.5"/>
</g>
<!-- EmployeeModule -->
<g id="node4" class="node">
<title>EmployeeModule</title>
<polygon fill="#8dd3c7" stroke="black" points="375.31,-122 372.31,-126 351.31,-126 348.31,-122 258.69,-122 258.69,-86 375.31,-86 375.31,-122"/>
<text text-anchor="middle" x="317" y="-99.8" font-family="Times,serif" font-size="14.00">EmployeeModule</text>
</g>
<!-- EmployeeModule&#45;&gt;OrderModule -->
<g id="edge4" class="edge">
<title>EmployeeModule&#45;&gt;OrderModule</title>
<path fill="none" stroke="black" d="M317,-122.11C317,-141.34 317,-169 317,-169 317,-169 640.78,-169 640.78,-169"/>
<polygon fill="black" stroke="black" points="640.78,-172.5 650.78,-169 640.78,-165.5 640.78,-172.5"/>
</g>
<!-- OffersModule -->
<g id="node5" class="node">
<title>OffersModule</title>
<polygon fill="#8dd3c7" stroke="black" points="240.8,-122 237.8,-126 216.8,-126 213.8,-122 145.2,-122 145.2,-86 240.8,-86 240.8,-122"/>
<text text-anchor="middle" x="193" y="-99.8" font-family="Times,serif" font-size="14.00">OffersModule</text>
</g>
<!-- OffersModule&#45;&gt;OrderModule -->
<g id="edge5" class="edge">
<title>OffersModule&#45;&gt;OrderModule</title>
<path fill="none" stroke="black" d="M193,-122.28C193,-143.32 193,-175 193,-175 193,-175 640.49,-175 640.49,-175"/>
<polygon fill="black" stroke="black" points="640.49,-178.5 650.49,-175 640.49,-171.5 640.49,-178.5"/>
</g>
<!-- ProductModule -->
<g id="node6" class="node">
<title>ProductModule</title>
<polygon fill="#8dd3c7" stroke="black" points="127.6,-122 124.6,-126 103.6,-126 100.6,-122 24.4,-122 24.4,-86 127.6,-86 127.6,-122"/>
<text text-anchor="middle" x="76" y="-99.8" font-family="Times,serif" font-size="14.00">ProductModule</text>
</g>
<!-- ProductModule&#45;&gt;OrderModule -->
<g id="edge6" class="edge">
<title>ProductModule&#45;&gt;OrderModule</title>
<path fill="none" stroke="black" d="M76,-122.25C76,-145.02 76,-181 76,-181 76,-181 640.83,-181 640.83,-181"/>
<polygon fill="black" stroke="black" points="640.83,-184.5 650.83,-181 640.83,-177.5 640.83,-184.5"/>
</g>
<!-- OrderService  -->
<g id="node8" class="node">
<title>OrderService </title>
<polygon fill="#fb8072" stroke="black" points="744.12,-252 649.88,-252 649.88,-216 744.12,-216 744.12,-252"/>
<text text-anchor="middle" x="697" y="-229.8" font-family="Times,serif" font-size="14.00">OrderService </text>
</g>
<!-- OrderModule&#45;&gt;OrderService  -->
<g id="edge7" class="edge">
<title>OrderModule&#45;&gt;OrderService </title>
<path fill="none" stroke="black" stroke-dasharray="5,2" d="M697,-187.11C697,-187.11 697,-205.99 697,-205.99"/>
<polygon fill="black" stroke="black" points="693.5,-205.99 697,-215.99 700.5,-205.99 693.5,-205.99"/>
</g>
<!-- DeliveryService -->
<g id="node9" class="node">
<title>DeliveryService</title>
<ellipse fill="#fdb462" stroke="black" cx="1473" cy="-104" rx="73.55" ry="18"/>
<text text-anchor="middle" x="1473" y="-99.8" font-family="Times,serif" font-size="14.00">DeliveryService</text>
</g>
<!-- DeliveryService&#45;&gt;OrderModule -->
<g id="edge8" class="edge">
<title>DeliveryService&#45;&gt;OrderModule</title>
<path fill="none" stroke="black" d="M1473,-122.25C1473,-145.02 1473,-181 1473,-181 1473,-181 753.22,-181 753.22,-181"/>
<polygon fill="black" stroke="black" points="753.22,-177.5 743.22,-181 753.22,-184.5 753.22,-177.5"/>
</g>
<!-- DineInService -->
<g id="node10" class="node">
<title>DineInService</title>
<ellipse fill="#fdb462" stroke="black" cx="1314" cy="-104" rx="66.61" ry="18"/>
<text text-anchor="middle" x="1314" y="-99.8" font-family="Times,serif" font-size="14.00">DineInService</text>
</g>
<!-- DineInService&#45;&gt;OrderModule -->
<g id="edge9" class="edge">
<title>DineInService&#45;&gt;OrderModule</title>
<path fill="none" stroke="black" d="M1314,-122.28C1314,-143.32 1314,-175 1314,-175 1314,-175 753.12,-175 753.12,-175"/>
<polygon fill="black" stroke="black" points="753.12,-171.5 743.12,-175 753.12,-178.5 753.12,-171.5"/>
</g>
<!-- OnlineService -->
<g id="node11" class="node">
<title>OnlineService</title>
<ellipse fill="#fdb462" stroke="black" cx="1163" cy="-104" rx="66.05" ry="18"/>
<text text-anchor="middle" x="1163" y="-99.8" font-family="Times,serif" font-size="14.00">OnlineService</text>
</g>
<!-- OnlineService&#45;&gt;OrderModule -->
<g id="edge10" class="edge">
<title>OnlineService&#45;&gt;OrderModule</title>
<path fill="none" stroke="black" d="M1163,-122.11C1163,-141.34 1163,-169 1163,-169 1163,-169 753.39,-169 753.39,-169"/>
<polygon fill="black" stroke="black" points="753.39,-165.5 743.39,-169 753.39,-172.5 753.39,-165.5"/>
</g>
<!-- OrderService -->
<g id="node12" class="node">
<title>OrderService</title>
<ellipse fill="#fdb462" stroke="black" cx="1016" cy="-104" rx="62.52" ry="18"/>
<text text-anchor="middle" x="1016" y="-99.8" font-family="Times,serif" font-size="14.00">OrderService</text>
</g>
<!-- OrderService&#45;&gt;OrderModule -->
<g id="edge11" class="edge">
<title>OrderService&#45;&gt;OrderModule</title>
<path fill="none" stroke="black" d="M1016,-122.02C1016,-139.37 1016,-163 1016,-163 1016,-163 753.39,-163 753.39,-163"/>
<polygon fill="black" stroke="black" points="753.39,-159.5 743.39,-163 753.39,-166.5 753.39,-159.5"/>
</g>
<!-- TakeAwayService -->
<g id="node13" class="node">
<title>TakeAwayService</title>
<ellipse fill="#fdb462" stroke="black" cx="853" cy="-104" rx="82.2" ry="18"/>
<text text-anchor="middle" x="853" y="-99.8" font-family="Times,serif" font-size="14.00">TakeAwayService</text>
</g>
<!-- TakeAwayService&#45;&gt;OrderModule -->
<g id="edge12" class="edge">
<title>TakeAwayService&#45;&gt;OrderModule</title>
<path fill="none" stroke="black" d="M853,-122.24C853,-137.57 853,-157 853,-157 853,-157 753.38,-157 753.38,-157"/>
<polygon fill="black" stroke="black" points="753.38,-153.5 743.38,-157 753.38,-160.5 753.38,-153.5"/>
</g>
</g>
</svg>
