<?xml version="1.0" encoding="UTF-8" standalone="no"?>
<!DOCTYPE svg PUBLIC "-//W3C//DTD SVG 1.1//EN"
 "http://www.w3.org/Graphics/SVG/1.1/DTD/svg11.dtd">
<!-- Generated by graphviz version 2.47.0 (20210316.0004)
 -->
<!-- Title: dependencies Pages: 1 -->
<svg width="504pt" height="211pt"
 viewBox="0.00 0.00 504.00 211.00" xmlns="http://www.w3.org/2000/svg" xmlns:xlink="http://www.w3.org/1999/xlink">
<g id="graph0" class="graph" transform="scale(1 1) rotate(0) translate(4 207)">
<title>dependencies</title>
<polygon fill="white" stroke="transparent" points="-4,4 -4,-207 500,-207 500,4 -4,4"/>
<text text-anchor="start" x="227.01" y="-42.4" font-family="Times-12" font-weight="bold" font-size="14.00">Legend</text>
<polygon fill="#ffffb3" stroke="transparent" points="14,-10 14,-30 34,-30 34,-10 14,-10"/>
<text text-anchor="start" x="37.63" y="-15.4" font-family="Times-12" font-size="14.00"> &#160;Declarations</text>
<polygon fill="#8dd3c7" stroke="transparent" points="127,-10 127,-30 147,-30 147,-10 127,-10"/>
<text text-anchor="start" x="150.73" y="-15.4" font-family="Times-12" font-size="14.00"> &#160;Module</text>
<polygon fill="#80b1d3" stroke="transparent" points="213,-10 213,-30 233,-30 233,-10 213,-10"/>
<text text-anchor="start" x="236.78" y="-15.4" font-family="Times-12" font-size="14.00"> &#160;Bootstrap</text>
<polygon fill="#fdb462" stroke="transparent" points="310,-10 310,-30 330,-30 330,-10 310,-10"/>
<text text-anchor="start" x="333.67" y="-15.4" font-family="Times-12" font-size="14.00"> &#160;Providers</text>
<polygon fill="#fb8072" stroke="transparent" points="406,-10 406,-30 426,-30 426,-10 406,-10"/>
<text text-anchor="start" x="429.73" y="-15.4" font-family="Times-12" font-size="14.00"> &#160;Exports</text>
<g id="clust1" class="cluster">
<title>cluster_TicketModule</title>
<polygon fill="none" stroke="black" stroke-dasharray="1,5" points="50,-70 50,-195 446,-195 446,-70 50,-70"/>
</g>
<g id="clust3" class="cluster">
<title>cluster_TicketModule_imports</title>
<polygon fill="none" stroke="black" points="212,-78 212,-130 438,-130 438,-78 212,-78"/>
</g>
<g id="clust6" class="cluster">
<title>cluster_TicketModule_providers</title>
<polygon fill="none" stroke="black" points="58,-78 58,-130 204,-130 204,-78 58,-78"/>
</g>
<!-- BranchModule -->
<g id="node1" class="node">
<title>BranchModule</title>
<polygon fill="#8dd3c7" stroke="black" points="429.98,-122 426.98,-126 405.98,-126 402.98,-122 330.02,-122 330.02,-86 429.98,-86 429.98,-122"/>
<text text-anchor="middle" x="380" y="-99.8" font-family="Times,serif" font-size="14.00">BranchModule</text>
</g>
<!-- TicketModule -->
<g id="node3" class="node">
<title>TicketModule</title>
<polygon fill="#8dd3c7" stroke="black" points="313.81,-187 310.81,-191 289.81,-191 286.81,-187 218.19,-187 218.19,-151 313.81,-151 313.81,-187"/>
<text text-anchor="middle" x="266" y="-164.8" font-family="Times,serif" font-size="14.00">TicketModule</text>
</g>
<!-- BranchModule&#45;&gt;TicketModule -->
<g id="edge1" class="edge">
<title>BranchModule&#45;&gt;TicketModule</title>
<path fill="none" stroke="black" d="M380,-122.11C380,-141.34 380,-169 380,-169 380,-169 323.69,-169 323.69,-169"/>
<polygon fill="black" stroke="black" points="323.69,-165.5 313.69,-169 323.69,-172.5 323.69,-165.5"/>
</g>
<!-- UsersModule -->
<g id="node2" class="node">
<title>UsersModule</title>
<polygon fill="#8dd3c7" stroke="black" points="311.92,-122 308.92,-126 287.92,-126 284.92,-122 220.08,-122 220.08,-86 311.92,-86 311.92,-122"/>
<text text-anchor="middle" x="266" y="-99.8" font-family="Times,serif" font-size="14.00">UsersModule</text>
</g>
<!-- UsersModule&#45;&gt;TicketModule -->
<g id="edge2" class="edge">
<title>UsersModule&#45;&gt;TicketModule</title>
<path fill="none" stroke="black" d="M266,-122.11C266,-122.11 266,-140.99 266,-140.99"/>
<polygon fill="black" stroke="black" points="262.5,-140.99 266,-150.99 269.5,-140.99 262.5,-140.99"/>
</g>
<!-- TicketService -->
<g id="node4" class="node">
<title>TicketService</title>
<ellipse fill="#fdb462" stroke="black" cx="131" cy="-104" rx="64.82" ry="18"/>
<text text-anchor="middle" x="131" y="-99.8" font-family="Times,serif" font-size="14.00">TicketService</text>
</g>
<!-- TicketService&#45;&gt;TicketModule -->
<g id="edge3" class="edge">
<title>TicketService&#45;&gt;TicketModule</title>
<path fill="none" stroke="black" d="M131,-122.11C131,-141.34 131,-169 131,-169 131,-169 208.02,-169 208.02,-169"/>
<polygon fill="black" stroke="black" points="208.02,-172.5 218.02,-169 208.02,-165.5 208.02,-172.5"/>
</g>
</g>
</svg>
