<?xml version="1.0" encoding="UTF-8" standalone="no"?>
<!DOCTYPE svg PUBLIC "-//W3C//DTD SVG 1.1//EN"
 "http://www.w3.org/Graphics/SVG/1.1/DTD/svg11.dtd">
<!-- Generated by graphviz version 2.47.0 (20210316.0004)
 -->
<!-- Title: dependencies Pages: 1 -->
<svg width="630pt" height="211pt"
 viewBox="0.00 0.00 630.00 211.00" xmlns="http://www.w3.org/2000/svg" xmlns:xlink="http://www.w3.org/1999/xlink">
<g id="graph0" class="graph" transform="scale(1 1) rotate(0) translate(4 207)">
<title>dependencies</title>
<polygon fill="white" stroke="transparent" points="-4,4 -4,-207 626,-207 626,4 -4,4"/>
<text text-anchor="start" x="290.01" y="-42.4" font-family="Times-12" font-weight="bold" font-size="14.00">Legend</text>
<polygon fill="#ffffb3" stroke="transparent" points="77,-10 77,-30 97,-30 97,-10 77,-10"/>
<text text-anchor="start" x="100.63" y="-15.4" font-family="Times-12" font-size="14.00"> &#160;Declarations</text>
<polygon fill="#8dd3c7" stroke="transparent" points="190,-10 190,-30 210,-30 210,-10 190,-10"/>
<text text-anchor="start" x="213.73" y="-15.4" font-family="Times-12" font-size="14.00"> &#160;Module</text>
<polygon fill="#80b1d3" stroke="transparent" points="276,-10 276,-30 296,-30 296,-10 276,-10"/>
<text text-anchor="start" x="299.78" y="-15.4" font-family="Times-12" font-size="14.00"> &#160;Bootstrap</text>
<polygon fill="#fdb462" stroke="transparent" points="373,-10 373,-30 393,-30 393,-10 373,-10"/>
<text text-anchor="start" x="396.67" y="-15.4" font-family="Times-12" font-size="14.00"> &#160;Providers</text>
<polygon fill="#fb8072" stroke="transparent" points="469,-10 469,-30 489,-30 489,-10 469,-10"/>
<text text-anchor="start" x="492.73" y="-15.4" font-family="Times-12" font-size="14.00"> &#160;Exports</text>
<g id="clust1" class="cluster">
<title>cluster_TicketModule</title>
<polygon fill="none" stroke="black" stroke-dasharray="1,5" points="8,-70 8,-195 614,-195 614,-70 8,-70"/>
</g>
<g id="clust6" class="cluster">
<title>cluster_TicketModule_providers</title>
<polygon fill="none" stroke="black" points="250,-78 250,-130 606,-130 606,-78 250,-78"/>
</g>
<g id="clust3" class="cluster">
<title>cluster_TicketModule_imports</title>
<polygon fill="none" stroke="black" points="16,-78 16,-130 242,-130 242,-78 16,-78"/>
</g>
<!-- BranchModule -->
<g id="node1" class="node">
<title>BranchModule</title>
<polygon fill="#8dd3c7" stroke="black" points="233.98,-122 230.98,-126 209.98,-126 206.98,-122 134.02,-122 134.02,-86 233.98,-86 233.98,-122"/>
<text text-anchor="middle" x="184" y="-99.8" font-family="Times,serif" font-size="14.00">BranchModule</text>
</g>
<!-- TicketModule -->
<g id="node3" class="node">
<title>TicketModule</title>
<polygon fill="#8dd3c7" stroke="black" points="316.81,-187 313.81,-191 292.81,-191 289.81,-187 221.19,-187 221.19,-151 316.81,-151 316.81,-187"/>
<text text-anchor="middle" x="269" y="-164.8" font-family="Times,serif" font-size="14.00">TicketModule</text>
</g>
<!-- BranchModule&#45;&gt;TicketModule -->
<g id="edge1" class="edge">
<title>BranchModule&#45;&gt;TicketModule</title>
<path fill="none" stroke="black" d="M227.67,-122.11C227.67,-122.11 227.67,-140.99 227.67,-140.99"/>
<polygon fill="black" stroke="black" points="224.17,-140.99 227.67,-150.99 231.17,-140.99 224.17,-140.99"/>
</g>
<!-- UsersModule -->
<g id="node2" class="node">
<title>UsersModule</title>
<polygon fill="#8dd3c7" stroke="black" points="115.92,-122 112.92,-126 91.92,-126 88.92,-122 24.08,-122 24.08,-86 115.92,-86 115.92,-122"/>
<text text-anchor="middle" x="70" y="-99.8" font-family="Times,serif" font-size="14.00">UsersModule</text>
</g>
<!-- UsersModule&#45;&gt;TicketModule -->
<g id="edge2" class="edge">
<title>UsersModule&#45;&gt;TicketModule</title>
<path fill="none" stroke="black" d="M70,-122.11C70,-141.34 70,-169 70,-169 70,-169 211.33,-169 211.33,-169"/>
<polygon fill="black" stroke="black" points="211.33,-172.5 221.33,-169 211.33,-165.5 211.33,-172.5"/>
</g>
<!-- TicketService -->
<g id="node4" class="node">
<title>TicketService</title>
<ellipse fill="#fdb462" stroke="black" cx="533" cy="-104" rx="64.82" ry="18"/>
<text text-anchor="middle" x="533" y="-99.8" font-family="Times,serif" font-size="14.00">TicketService</text>
</g>
<!-- TicketService&#45;&gt;TicketModule -->
<g id="edge3" class="edge">
<title>TicketService&#45;&gt;TicketModule</title>
<path fill="none" stroke="black" d="M533,-122.11C533,-141.34 533,-169 533,-169 533,-169 326.81,-169 326.81,-169"/>
<polygon fill="black" stroke="black" points="326.81,-165.5 316.81,-169 326.81,-172.5 326.81,-165.5"/>
</g>
<!-- TicketUpdatesService -->
<g id="node5" class="node">
<title>TicketUpdatesService</title>
<ellipse fill="#fdb462" stroke="black" cx="354" cy="-104" rx="96.1" ry="18"/>
<text text-anchor="middle" x="354" y="-99.8" font-family="Times,serif" font-size="14.00">TicketUpdatesService</text>
</g>
<!-- TicketUpdatesService&#45;&gt;TicketModule -->
<g id="edge4" class="edge">
<title>TicketUpdatesService&#45;&gt;TicketModule</title>
<path fill="none" stroke="black" d="M287.18,-117.15C287.18,-117.15 287.18,-140.69 287.18,-140.69"/>
<polygon fill="black" stroke="black" points="283.68,-140.69 287.18,-150.69 290.68,-140.69 283.68,-140.69"/>
</g>
</g>
</svg>
