<?xml version="1.0" encoding="UTF-8" standalone="no"?>
<!DOCTYPE svg PUBLIC "-//W3C//DTD SVG 1.1//EN"
 "http://www.w3.org/Graphics/SVG/1.1/DTD/svg11.dtd">
<!-- Generated by graphviz version 2.47.0 (20210316.0004)
 -->
<!-- Title: dependencies Pages: 1 -->
<svg width="504pt" height="284pt"
 viewBox="0.00 0.00 504.00 284.00" xmlns="http://www.w3.org/2000/svg" xmlns:xlink="http://www.w3.org/1999/xlink">
<g id="graph0" class="graph" transform="scale(1 1) rotate(0) translate(4 280)">
<title>dependencies</title>
<polygon fill="white" stroke="transparent" points="-4,4 -4,-280 500,-280 500,4 -4,4"/>
<text text-anchor="start" x="227.01" y="-42.4" font-family="Times-12" font-weight="bold" font-size="14.00">Legend</text>
<polygon fill="#ffffb3" stroke="transparent" points="14,-10 14,-30 34,-30 34,-10 14,-10"/>
<text text-anchor="start" x="37.63" y="-15.4" font-family="Times-12" font-size="14.00"> &#160;Declarations</text>
<polygon fill="#8dd3c7" stroke="transparent" points="127,-10 127,-30 147,-30 147,-10 127,-10"/>
<text text-anchor="start" x="150.73" y="-15.4" font-family="Times-12" font-size="14.00"> &#160;Module</text>
<polygon fill="#80b1d3" stroke="transparent" points="213,-10 213,-30 233,-30 233,-10 213,-10"/>
<text text-anchor="start" x="236.78" y="-15.4" font-family="Times-12" font-size="14.00"> &#160;Bootstrap</text>
<polygon fill="#fdb462" stroke="transparent" points="310,-10 310,-30 330,-30 330,-10 310,-10"/>
<text text-anchor="start" x="333.67" y="-15.4" font-family="Times-12" font-size="14.00"> &#160;Providers</text>
<polygon fill="#fb8072" stroke="transparent" points="406,-10 406,-30 426,-30 426,-10 406,-10"/>
<text text-anchor="start" x="429.73" y="-15.4" font-family="Times-12" font-size="14.00"> &#160;Exports</text>
<g id="clust1" class="cluster">
<title>cluster_CouponModule</title>
<polygon fill="none" stroke="black" stroke-dasharray="1,5" points="99,-70 99,-268 397,-268 397,-70 99,-70"/>
</g>
<g id="clust4" class="cluster">
<title>cluster_CouponModule_exports</title>
<polygon fill="none" stroke="black" points="178,-208 178,-260 300,-260 300,-208 178,-208"/>
</g>
<g id="clust6" class="cluster">
<title>cluster_CouponModule_providers</title>
<polygon fill="none" stroke="black" points="231,-78 231,-130 389,-130 389,-78 231,-78"/>
</g>
<g id="clust3" class="cluster">
<title>cluster_CouponModule_imports</title>
<polygon fill="none" stroke="black" points="107,-78 107,-130 223,-130 223,-78 107,-78"/>
</g>
<!-- BranchModule -->
<g id="node1" class="node">
<title>BranchModule</title>
<polygon fill="#8dd3c7" stroke="black" points="214.98,-122 211.98,-126 190.98,-126 187.98,-122 115.02,-122 115.02,-86 214.98,-86 214.98,-122"/>
<text text-anchor="middle" x="165" y="-99.8" font-family="Times,serif" font-size="14.00">BranchModule</text>
</g>
<!-- CouponModule -->
<g id="node2" class="node">
<title>CouponModule</title>
<polygon fill="#8dd3c7" stroke="black" points="290.89,-187 287.89,-191 266.89,-191 263.89,-187 187.11,-187 187.11,-151 290.89,-151 290.89,-187"/>
<text text-anchor="middle" x="239" y="-164.8" font-family="Times,serif" font-size="14.00">CouponModule</text>
</g>
<!-- BranchModule&#45;&gt;CouponModule -->
<g id="edge1" class="edge">
<title>BranchModule&#45;&gt;CouponModule</title>
<path fill="none" stroke="black" d="M201.02,-122.11C201.02,-122.11 201.02,-140.99 201.02,-140.99"/>
<polygon fill="black" stroke="black" points="197.52,-140.99 201.02,-150.99 204.52,-140.99 197.52,-140.99"/>
</g>
<!-- CouponService  -->
<g id="node3" class="node">
<title>CouponService </title>
<polygon fill="#fb8072" stroke="black" points="291.81,-252 186.19,-252 186.19,-216 291.81,-216 291.81,-252"/>
<text text-anchor="middle" x="239" y="-229.8" font-family="Times,serif" font-size="14.00">CouponService </text>
</g>
<!-- CouponModule&#45;&gt;CouponService  -->
<g id="edge2" class="edge">
<title>CouponModule&#45;&gt;CouponService </title>
<path fill="none" stroke="black" stroke-dasharray="5,2" d="M239,-187.11C239,-187.11 239,-205.99 239,-205.99"/>
<polygon fill="black" stroke="black" points="235.5,-205.99 239,-215.99 242.5,-205.99 235.5,-205.99"/>
</g>
<!-- CouponService -->
<g id="node4" class="node">
<title>CouponService</title>
<ellipse fill="#fdb462" stroke="black" cx="310" cy="-104" rx="70.65" ry="18"/>
<text text-anchor="middle" x="310" y="-99.8" font-family="Times,serif" font-size="14.00">CouponService</text>
</g>
<!-- CouponService&#45;&gt;CouponModule -->
<g id="edge3" class="edge">
<title>CouponService&#45;&gt;CouponModule</title>
<path fill="none" stroke="black" d="M265.18,-118.1C265.18,-118.1 265.18,-140.72 265.18,-140.72"/>
<polygon fill="black" stroke="black" points="261.68,-140.72 265.18,-150.72 268.68,-140.72 261.68,-140.72"/>
</g>
</g>
</svg>
