<?xml version="1.0" encoding="UTF-8" standalone="no"?>
<!DOCTYPE svg PUBLIC "-//W3C//DTD SVG 1.1//EN"
 "http://www.w3.org/Graphics/SVG/1.1/DTD/svg11.dtd">
<!-- Generated by graphviz version 2.47.0 (20210316.0004)
 -->
<!-- Title: dependencies Pages: 1 -->
<svg width="826pt" height="284pt"
 viewBox="0.00 0.00 826.00 284.00" xmlns="http://www.w3.org/2000/svg" xmlns:xlink="http://www.w3.org/1999/xlink">
<g id="graph0" class="graph" transform="scale(1 1) rotate(0) translate(4 280)">
<title>dependencies</title>
<polygon fill="white" stroke="transparent" points="-4,4 -4,-280 822,-280 822,4 -4,4"/>
<text text-anchor="start" x="388.01" y="-42.4" font-family="Times-12" font-weight="bold" font-size="14.00">Legend</text>
<polygon fill="#ffffb3" stroke="transparent" points="175,-10 175,-30 195,-30 195,-10 175,-10"/>
<text text-anchor="start" x="198.63" y="-15.4" font-family="Times-12" font-size="14.00"> &#160;Declarations</text>
<polygon fill="#8dd3c7" stroke="transparent" points="288,-10 288,-30 308,-30 308,-10 288,-10"/>
<text text-anchor="start" x="311.73" y="-15.4" font-family="Times-12" font-size="14.00"> &#160;Module</text>
<polygon fill="#80b1d3" stroke="transparent" points="374,-10 374,-30 394,-30 394,-10 374,-10"/>
<text text-anchor="start" x="397.78" y="-15.4" font-family="Times-12" font-size="14.00"> &#160;Bootstrap</text>
<polygon fill="#fdb462" stroke="transparent" points="471,-10 471,-30 491,-30 491,-10 471,-10"/>
<text text-anchor="start" x="494.67" y="-15.4" font-family="Times-12" font-size="14.00"> &#160;Providers</text>
<polygon fill="#fb8072" stroke="transparent" points="567,-10 567,-30 587,-30 587,-10 567,-10"/>
<text text-anchor="start" x="590.73" y="-15.4" font-family="Times-12" font-size="14.00"> &#160;Exports</text>
<g id="clust1" class="cluster">
<title>cluster_UsersModule</title>
<polygon fill="none" stroke="black" stroke-dasharray="1,5" points="8,-70 8,-268 810,-268 810,-70 8,-70"/>
</g>
<g id="clust3" class="cluster">
<title>cluster_UsersModule_imports</title>
<polygon fill="none" stroke="black" points="572,-78 572,-130 802,-130 802,-78 572,-78"/>
</g>
<g id="clust6" class="cluster">
<title>cluster_UsersModule_providers</title>
<polygon fill="none" stroke="black" points="16,-78 16,-130 564,-130 564,-78 16,-78"/>
</g>
<g id="clust4" class="cluster">
<title>cluster_UsersModule_exports</title>
<polygon fill="none" stroke="black" points="334,-208 334,-260 608,-260 608,-208 334,-208"/>
</g>
<!-- LocationModule -->
<g id="node1" class="node">
<title>LocationModule</title>
<polygon fill="#8dd3c7" stroke="black" points="793.81,-122 790.81,-126 769.81,-126 766.81,-122 684.19,-122 684.19,-86 793.81,-86 793.81,-122"/>
<text text-anchor="middle" x="739" y="-99.8" font-family="Times,serif" font-size="14.00">LocationModule</text>
</g>
<!-- UsersModule -->
<g id="node3" class="node">
<title>UsersModule</title>
<polygon fill="#8dd3c7" stroke="black" points="503.92,-187 500.92,-191 479.92,-191 476.92,-187 412.08,-187 412.08,-151 503.92,-151 503.92,-187"/>
<text text-anchor="middle" x="458" y="-164.8" font-family="Times,serif" font-size="14.00">UsersModule</text>
</g>
<!-- LocationModule&#45;&gt;UsersModule -->
<g id="edge1" class="edge">
<title>LocationModule&#45;&gt;UsersModule</title>
<path fill="none" stroke="black" d="M739,-122.28C739,-143.32 739,-175 739,-175 739,-175 513.77,-175 513.77,-175"/>
<polygon fill="black" stroke="black" points="513.77,-171.5 503.77,-175 513.77,-178.5 513.77,-171.5"/>
</g>
<!-- MailModule -->
<g id="node2" class="node">
<title>MailModule</title>
<polygon fill="#8dd3c7" stroke="black" points="665.99,-122 662.99,-126 641.99,-126 638.99,-122 580.01,-122 580.01,-86 665.99,-86 665.99,-122"/>
<text text-anchor="middle" x="623" y="-99.8" font-family="Times,serif" font-size="14.00">MailModule</text>
</g>
<!-- MailModule&#45;&gt;UsersModule -->
<g id="edge2" class="edge">
<title>MailModule&#45;&gt;UsersModule</title>
<path fill="none" stroke="black" d="M590.06,-122.02C590.06,-139.37 590.06,-163 590.06,-163 590.06,-163 513.82,-163 513.82,-163"/>
<polygon fill="black" stroke="black" points="513.82,-159.5 503.82,-163 513.82,-166.5 513.82,-159.5"/>
</g>
<!-- ResetPasswordService  -->
<g id="node4" class="node">
<title>ResetPasswordService </title>
<polygon fill="#fb8072" stroke="black" points="600.23,-252 453.77,-252 453.77,-216 600.23,-216 600.23,-252"/>
<text text-anchor="middle" x="527" y="-229.8" font-family="Times,serif" font-size="14.00">ResetPasswordService </text>
</g>
<!-- UsersModule&#45;&gt;ResetPasswordService  -->
<g id="edge3" class="edge">
<title>UsersModule&#45;&gt;ResetPasswordService </title>
<path fill="none" stroke="black" stroke-dasharray="5,2" d="M478.8,-187.11C478.8,-187.11 478.8,-205.99 478.8,-205.99"/>
<polygon fill="black" stroke="black" points="475.3,-205.99 478.8,-215.99 482.3,-205.99 475.3,-205.99"/>
</g>
<!-- UsersService  -->
<g id="node5" class="node">
<title>UsersService </title>
<polygon fill="#fb8072" stroke="black" points="435.85,-252 342.15,-252 342.15,-216 435.85,-216 435.85,-252"/>
<text text-anchor="middle" x="389" y="-229.8" font-family="Times,serif" font-size="14.00">UsersService </text>
</g>
<!-- UsersModule&#45;&gt;UsersService  -->
<g id="edge4" class="edge">
<title>UsersModule&#45;&gt;UsersService </title>
<path fill="none" stroke="black" stroke-dasharray="5,2" d="M423.98,-187.11C423.98,-187.11 423.98,-205.99 423.98,-205.99"/>
<polygon fill="black" stroke="black" points="420.48,-205.99 423.98,-215.99 427.48,-205.99 420.48,-205.99"/>
</g>
<!-- ResetPasswordService -->
<g id="node6" class="node">
<title>ResetPasswordService</title>
<ellipse fill="#fdb462" stroke="black" cx="458" cy="-104" rx="98.41" ry="18"/>
<text text-anchor="middle" x="458" y="-99.8" font-family="Times,serif" font-size="14.00">ResetPasswordService</text>
</g>
<!-- ResetPasswordService&#45;&gt;UsersModule -->
<g id="edge5" class="edge">
<title>ResetPasswordService&#45;&gt;UsersModule</title>
<path fill="none" stroke="black" d="M458,-122.11C458,-122.11 458,-140.99 458,-140.99"/>
<polygon fill="black" stroke="black" points="454.5,-140.99 458,-150.99 461.5,-140.99 454.5,-140.99"/>
</g>
<!-- UsersService -->
<g id="node7" class="node">
<title>UsersService</title>
<ellipse fill="#fdb462" stroke="black" cx="280" cy="-104" rx="61.95" ry="18"/>
<text text-anchor="middle" x="280" y="-99.8" font-family="Times,serif" font-size="14.00">UsersService</text>
</g>
<!-- UsersService&#45;&gt;UsersModule -->
<g id="edge6" class="edge">
<title>UsersService&#45;&gt;UsersModule</title>
<path fill="none" stroke="black" d="M280,-122.02C280,-139.37 280,-163 280,-163 280,-163 402.16,-163 402.16,-163"/>
<polygon fill="black" stroke="black" points="402.16,-166.5 412.16,-163 402.16,-159.5 402.16,-166.5"/>
</g>
<!-- VerifyEmailService -->
<g id="node8" class="node">
<title>VerifyEmailService</title>
<ellipse fill="#fdb462" stroke="black" cx="112" cy="-104" rx="88.02" ry="18"/>
<text text-anchor="middle" x="112" y="-99.8" font-family="Times,serif" font-size="14.00">VerifyEmailService</text>
</g>
<!-- VerifyEmailService&#45;&gt;UsersModule -->
<g id="edge7" class="edge">
<title>VerifyEmailService&#45;&gt;UsersModule</title>
<path fill="none" stroke="black" d="M112,-122.28C112,-143.32 112,-175 112,-175 112,-175 402.05,-175 402.05,-175"/>
<polygon fill="black" stroke="black" points="402.05,-178.5 412.05,-175 402.05,-171.5 402.05,-178.5"/>
</g>
</g>
</svg>
