<?xml version="1.0" encoding="UTF-8" standalone="no"?>
<!DOCTYPE svg PUBLIC "-//W3C//DTD SVG 1.1//EN"
 "http://www.w3.org/Graphics/SVG/1.1/DTD/svg11.dtd">
<!-- Generated by graphviz version 2.47.0 (20210316.0004)
 -->
<!-- Title: dependencies Pages: 1 -->
<svg width="704pt" height="284pt"
 viewBox="0.00 0.00 704.00 284.00" xmlns="http://www.w3.org/2000/svg" xmlns:xlink="http://www.w3.org/1999/xlink">
<g id="graph0" class="graph" transform="scale(1 1) rotate(0) translate(4 280)">
<title>dependencies</title>
<polygon fill="white" stroke="transparent" points="-4,4 -4,-280 700,-280 700,4 -4,4"/>
<text text-anchor="start" x="327.01" y="-42.4" font-family="Times-12" font-weight="bold" font-size="14.00">Legend</text>
<polygon fill="#ffffb3" stroke="transparent" points="114,-10 114,-30 134,-30 134,-10 114,-10"/>
<text text-anchor="start" x="137.63" y="-15.4" font-family="Times-12" font-size="14.00"> &#160;Declarations</text>
<polygon fill="#8dd3c7" stroke="transparent" points="227,-10 227,-30 247,-30 247,-10 227,-10"/>
<text text-anchor="start" x="250.73" y="-15.4" font-family="Times-12" font-size="14.00"> &#160;Module</text>
<polygon fill="#80b1d3" stroke="transparent" points="313,-10 313,-30 333,-30 333,-10 313,-10"/>
<text text-anchor="start" x="336.78" y="-15.4" font-family="Times-12" font-size="14.00"> &#160;Bootstrap</text>
<polygon fill="#fdb462" stroke="transparent" points="410,-10 410,-30 430,-30 430,-10 410,-10"/>
<text text-anchor="start" x="433.67" y="-15.4" font-family="Times-12" font-size="14.00"> &#160;Providers</text>
<polygon fill="#fb8072" stroke="transparent" points="506,-10 506,-30 526,-30 526,-10 506,-10"/>
<text text-anchor="start" x="529.73" y="-15.4" font-family="Times-12" font-size="14.00"> &#160;Exports</text>
<g id="clust1" class="cluster">
<title>cluster_CustomerModule</title>
<polygon fill="none" stroke="black" stroke-dasharray="1,5" points="8,-70 8,-268 688,-268 688,-70 8,-70"/>
</g>
<g id="clust4" class="cluster">
<title>cluster_CustomerModule_exports</title>
<polygon fill="none" stroke="black" points="221,-208 221,-260 543,-260 543,-208 221,-208"/>
</g>
<g id="clust3" class="cluster">
<title>cluster_CustomerModule_imports</title>
<polygon fill="none" stroke="black" points="445,-78 445,-130 680,-130 680,-78 445,-78"/>
</g>
<g id="clust6" class="cluster">
<title>cluster_CustomerModule_providers</title>
<polygon fill="none" stroke="black" points="16,-78 16,-130 437,-130 437,-78 16,-78"/>
</g>
<!-- LocationModule -->
<g id="node1" class="node">
<title>LocationModule</title>
<polygon fill="#8dd3c7" stroke="black" points="671.81,-122 668.81,-126 647.81,-126 644.81,-122 562.19,-122 562.19,-86 671.81,-86 671.81,-122"/>
<text text-anchor="middle" x="617" y="-99.8" font-family="Times,serif" font-size="14.00">LocationModule</text>
</g>
<!-- CustomerModule -->
<g id="node3" class="node">
<title>CustomerModule</title>
<polygon fill="#8dd3c7" stroke="black" points="424.99,-187 421.99,-191 400.99,-191 397.99,-187 311.01,-187 311.01,-151 424.99,-151 424.99,-187"/>
<text text-anchor="middle" x="368" y="-164.8" font-family="Times,serif" font-size="14.00">CustomerModule</text>
</g>
<!-- LocationModule&#45;&gt;CustomerModule -->
<g id="edge1" class="edge">
<title>LocationModule&#45;&gt;CustomerModule</title>
<path fill="none" stroke="black" d="M617,-122.28C617,-143.32 617,-175 617,-175 617,-175 435.13,-175 435.13,-175"/>
<polygon fill="black" stroke="black" points="435.13,-171.5 425.13,-175 435.13,-178.5 435.13,-171.5"/>
</g>
<!-- UsersModule -->
<g id="node2" class="node">
<title>UsersModule</title>
<polygon fill="#8dd3c7" stroke="black" points="544.92,-122 541.92,-126 520.92,-126 517.92,-122 453.08,-122 453.08,-86 544.92,-86 544.92,-122"/>
<text text-anchor="middle" x="499" y="-99.8" font-family="Times,serif" font-size="14.00">UsersModule</text>
</g>
<!-- UsersModule&#45;&gt;CustomerModule -->
<g id="edge2" class="edge">
<title>UsersModule&#45;&gt;CustomerModule</title>
<path fill="none" stroke="black" d="M493.93,-122.02C493.93,-139.37 493.93,-163 493.93,-163 493.93,-163 435.07,-163 435.07,-163"/>
<polygon fill="black" stroke="black" points="435.07,-159.5 425.07,-163 435.07,-166.5 435.07,-159.5"/>
</g>
<!-- CustomerLocationsService  -->
<g id="node4" class="node">
<title>CustomerLocationsService </title>
<polygon fill="#fb8072" stroke="black" points="534.62,-252 363.38,-252 363.38,-216 534.62,-216 534.62,-252"/>
<text text-anchor="middle" x="449" y="-229.8" font-family="Times,serif" font-size="14.00">CustomerLocationsService </text>
</g>
<!-- CustomerModule&#45;&gt;CustomerLocationsService  -->
<g id="edge3" class="edge">
<title>CustomerModule&#45;&gt;CustomerLocationsService </title>
<path fill="none" stroke="black" stroke-dasharray="5,2" d="M394.22,-187.11C394.22,-187.11 394.22,-205.99 394.22,-205.99"/>
<polygon fill="black" stroke="black" points="390.72,-205.99 394.22,-215.99 397.72,-205.99 390.72,-205.99"/>
</g>
<!-- CustomerService  -->
<g id="node5" class="node">
<title>CustomerService </title>
<polygon fill="#fb8072" stroke="black" points="344.92,-252 229.08,-252 229.08,-216 344.92,-216 344.92,-252"/>
<text text-anchor="middle" x="287" y="-229.8" font-family="Times,serif" font-size="14.00">CustomerService </text>
</g>
<!-- CustomerModule&#45;&gt;CustomerService  -->
<g id="edge4" class="edge">
<title>CustomerModule&#45;&gt;CustomerService </title>
<path fill="none" stroke="black" stroke-dasharray="5,2" d="M327.98,-187.11C327.98,-187.11 327.98,-205.99 327.98,-205.99"/>
<polygon fill="black" stroke="black" points="324.48,-205.99 327.98,-215.99 331.48,-205.99 324.48,-205.99"/>
</g>
<!-- CustomerLocationsService -->
<g id="node6" class="node">
<title>CustomerLocationsService</title>
<ellipse fill="#fdb462" stroke="black" cx="313" cy="-104" rx="115.75" ry="18"/>
<text text-anchor="middle" x="313" y="-99.8" font-family="Times,serif" font-size="14.00">CustomerLocationsService</text>
</g>
<!-- CustomerLocationsService&#45;&gt;CustomerModule -->
<g id="edge5" class="edge">
<title>CustomerLocationsService&#45;&gt;CustomerModule</title>
<path fill="none" stroke="black" d="M368,-120.07C368,-120.07 368,-140.82 368,-140.82"/>
<polygon fill="black" stroke="black" points="364.5,-140.82 368,-150.82 371.5,-140.82 364.5,-140.82"/>
</g>
<!-- CustomerService -->
<g id="node7" class="node">
<title>CustomerService</title>
<ellipse fill="#fdb462" stroke="black" cx="102" cy="-104" rx="77.58" ry="18"/>
<text text-anchor="middle" x="102" y="-99.8" font-family="Times,serif" font-size="14.00">CustomerService</text>
</g>
<!-- CustomerService&#45;&gt;CustomerModule -->
<g id="edge6" class="edge">
<title>CustomerService&#45;&gt;CustomerModule</title>
<path fill="none" stroke="black" d="M102,-122.11C102,-141.34 102,-169 102,-169 102,-169 300.94,-169 300.94,-169"/>
<polygon fill="black" stroke="black" points="300.94,-172.5 310.94,-169 300.94,-165.5 300.94,-172.5"/>
</g>
</g>
</svg>
