<?xml version="1.0" encoding="UTF-8" standalone="no"?>
<!DOCTYPE svg PUBLIC "-//W3C//DTD SVG 1.1//EN"
 "http://www.w3.org/Graphics/SVG/1.1/DTD/svg11.dtd">
<!-- Generated by graphviz version 2.47.0 (20210316.0004)
 -->
<!-- Title: dependencies Pages: 1 -->
<svg width="1042pt" height="284pt"
 viewBox="0.00 0.00 1042.00 284.00" xmlns="http://www.w3.org/2000/svg" xmlns:xlink="http://www.w3.org/1999/xlink">
<g id="graph0" class="graph" transform="scale(1 1) rotate(0) translate(4 280)">
<title>dependencies</title>
<polygon fill="white" stroke="transparent" points="-4,4 -4,-280 1038,-280 1038,4 -4,4"/>
<text text-anchor="start" x="496.01" y="-42.4" font-family="Times-12" font-weight="bold" font-size="14.00">Legend</text>
<polygon fill="#ffffb3" stroke="transparent" points="283,-10 283,-30 303,-30 303,-10 283,-10"/>
<text text-anchor="start" x="306.63" y="-15.4" font-family="Times-12" font-size="14.00"> &#160;Declarations</text>
<polygon fill="#8dd3c7" stroke="transparent" points="396,-10 396,-30 416,-30 416,-10 396,-10"/>
<text text-anchor="start" x="419.73" y="-15.4" font-family="Times-12" font-size="14.00"> &#160;Module</text>
<polygon fill="#80b1d3" stroke="transparent" points="482,-10 482,-30 502,-30 502,-10 482,-10"/>
<text text-anchor="start" x="505.78" y="-15.4" font-family="Times-12" font-size="14.00"> &#160;Bootstrap</text>
<polygon fill="#fdb462" stroke="transparent" points="579,-10 579,-30 599,-30 599,-10 579,-10"/>
<text text-anchor="start" x="602.67" y="-15.4" font-family="Times-12" font-size="14.00"> &#160;Providers</text>
<polygon fill="#fb8072" stroke="transparent" points="675,-10 675,-30 695,-30 695,-10 675,-10"/>
<text text-anchor="start" x="698.73" y="-15.4" font-family="Times-12" font-size="14.00"> &#160;Exports</text>
<g id="clust1" class="cluster">
<title>cluster_StockModule</title>
<polygon fill="none" stroke="black" stroke-dasharray="1,5" points="8,-70 8,-268 1026,-268 1026,-70 8,-70"/>
</g>
<g id="clust6" class="cluster">
<title>cluster_StockModule_providers</title>
<polygon fill="none" stroke="black" points="250,-78 250,-130 1018,-130 1018,-78 250,-78"/>
</g>
<g id="clust3" class="cluster">
<title>cluster_StockModule_imports</title>
<polygon fill="none" stroke="black" points="16,-78 16,-130 242,-130 242,-78 16,-78"/>
</g>
<g id="clust4" class="cluster">
<title>cluster_StockModule_exports</title>
<polygon fill="none" stroke="black" points="228,-208 228,-260 652,-260 652,-208 228,-208"/>
</g>
<!-- BranchModule -->
<g id="node1" class="node">
<title>BranchModule</title>
<polygon fill="#8dd3c7" stroke="black" points="233.98,-122 230.98,-126 209.98,-126 206.98,-122 134.02,-122 134.02,-86 233.98,-86 233.98,-122"/>
<text text-anchor="middle" x="184" y="-99.8" font-family="Times,serif" font-size="14.00">BranchModule</text>
</g>
<!-- StockModule -->
<g id="node3" class="node">
<title>StockModule</title>
<polygon fill="#8dd3c7" stroke="black" points="505.94,-187 502.94,-191 481.94,-191 478.94,-187 414.06,-187 414.06,-151 505.94,-151 505.94,-187"/>
<text text-anchor="middle" x="460" y="-164.8" font-family="Times,serif" font-size="14.00">StockModule</text>
</g>
<!-- BranchModule&#45;&gt;StockModule -->
<g id="edge1" class="edge">
<title>BranchModule&#45;&gt;StockModule</title>
<path fill="none" stroke="black" d="M184,-122.03C184,-138.4 184,-160 184,-160 184,-160 404.11,-160 404.11,-160"/>
<polygon fill="black" stroke="black" points="404.11,-163.5 414.11,-160 404.11,-156.5 404.11,-163.5"/>
</g>
<!-- UsersModule -->
<g id="node2" class="node">
<title>UsersModule</title>
<polygon fill="#8dd3c7" stroke="black" points="115.92,-122 112.92,-126 91.92,-126 88.92,-122 24.08,-122 24.08,-86 115.92,-86 115.92,-122"/>
<text text-anchor="middle" x="70" y="-99.8" font-family="Times,serif" font-size="14.00">UsersModule</text>
</g>
<!-- UsersModule&#45;&gt;StockModule -->
<g id="edge2" class="edge">
<title>UsersModule&#45;&gt;StockModule</title>
<path fill="none" stroke="black" d="M70,-122.11C70,-141.34 70,-169 70,-169 70,-169 404.12,-169 404.12,-169"/>
<polygon fill="black" stroke="black" points="404.12,-172.5 414.12,-169 404.12,-165.5 404.12,-172.5"/>
</g>
<!-- StockItemService  -->
<g id="node4" class="node">
<title>StockItemService </title>
<polygon fill="#fb8072" stroke="black" points="643.52,-252 524.48,-252 524.48,-216 643.52,-216 643.52,-252"/>
<text text-anchor="middle" x="584" y="-229.8" font-family="Times,serif" font-size="14.00">StockItemService </text>
</g>
<!-- StockModule&#45;&gt;StockItemService  -->
<g id="edge3" class="edge">
<title>StockModule&#45;&gt;StockItemService </title>
<path fill="none" stroke="black" stroke-dasharray="5,2" d="M505.79,-178C536.08,-178 570.24,-178 570.24,-178 570.24,-178 570.24,-205.97 570.24,-205.97"/>
<polygon fill="black" stroke="black" points="566.74,-205.97 570.24,-215.97 573.74,-205.97 566.74,-205.97"/>
</g>
<!-- StockService  -->
<g id="node5" class="node">
<title>StockService </title>
<polygon fill="#fb8072" stroke="black" points="506.87,-252 413.13,-252 413.13,-216 506.87,-216 506.87,-252"/>
<text text-anchor="middle" x="460" y="-229.8" font-family="Times,serif" font-size="14.00">StockService </text>
</g>
<!-- StockModule&#45;&gt;StockService  -->
<g id="edge4" class="edge">
<title>StockModule&#45;&gt;StockService </title>
<path fill="none" stroke="black" stroke-dasharray="5,2" d="M460,-187.11C460,-187.11 460,-205.99 460,-205.99"/>
<polygon fill="black" stroke="black" points="456.5,-205.99 460,-215.99 463.5,-205.99 456.5,-205.99"/>
</g>
<!-- StockTransactionService  -->
<g id="node6" class="node">
<title>StockTransactionService </title>
<polygon fill="#fb8072" stroke="black" points="395.95,-252 236.05,-252 236.05,-216 395.95,-216 395.95,-252"/>
<text text-anchor="middle" x="316" y="-229.8" font-family="Times,serif" font-size="14.00">StockTransactionService </text>
</g>
<!-- StockModule&#45;&gt;StockTransactionService  -->
<g id="edge5" class="edge">
<title>StockModule&#45;&gt;StockTransactionService </title>
<path fill="none" stroke="black" stroke-dasharray="5,2" d="M414.26,-178C375.81,-178 327.08,-178 327.08,-178 327.08,-178 327.08,-205.97 327.08,-205.97"/>
<polygon fill="black" stroke="black" points="323.58,-205.97 327.08,-215.97 330.58,-205.97 323.58,-205.97"/>
</g>
<!-- StockItemLogsService -->
<g id="node7" class="node">
<title>StockItemLogsService</title>
<ellipse fill="#fdb462" stroke="black" cx="911" cy="-104" rx="98.99" ry="18"/>
<text text-anchor="middle" x="911" y="-99.8" font-family="Times,serif" font-size="14.00">StockItemLogsService</text>
</g>
<!-- StockItemLogsService&#45;&gt;StockModule -->
<g id="edge6" class="edge">
<title>StockItemLogsService&#45;&gt;StockModule</title>
<path fill="none" stroke="black" d="M911,-122.11C911,-141.34 911,-169 911,-169 911,-169 515.73,-169 515.73,-169"/>
<polygon fill="black" stroke="black" points="515.73,-165.5 505.73,-169 515.73,-172.5 515.73,-165.5"/>
</g>
<!-- StockItemService -->
<g id="node8" class="node">
<title>StockItemService</title>
<ellipse fill="#fdb462" stroke="black" cx="714" cy="-104" rx="79.87" ry="18"/>
<text text-anchor="middle" x="714" y="-99.8" font-family="Times,serif" font-size="14.00">StockItemService</text>
</g>
<!-- StockItemService&#45;&gt;StockModule -->
<g id="edge7" class="edge">
<title>StockItemService&#45;&gt;StockModule</title>
<path fill="none" stroke="black" d="M638.91,-110.42C638.91,-125.13 638.91,-160 638.91,-160 638.91,-160 516.07,-160 516.07,-160"/>
<polygon fill="black" stroke="black" points="516.07,-156.5 506.07,-160 516.07,-163.5 516.07,-156.5"/>
</g>
<!-- StockService -->
<g id="node9" class="node">
<title>StockService</title>
<ellipse fill="#fdb462" stroke="black" cx="554" cy="-104" rx="61.98" ry="18"/>
<text text-anchor="middle" x="554" y="-99.8" font-family="Times,serif" font-size="14.00">StockService</text>
</g>
<!-- StockService&#45;&gt;StockModule -->
<g id="edge8" class="edge">
<title>StockService&#45;&gt;StockModule</title>
<path fill="none" stroke="black" d="M498.87,-112.23C498.87,-112.23 498.87,-140.76 498.87,-140.76"/>
<polygon fill="black" stroke="black" points="495.37,-140.76 498.87,-150.76 502.37,-140.76 495.37,-140.76"/>
</g>
<!-- StockTransactionService -->
<g id="node10" class="node">
<title>StockTransactionService</title>
<ellipse fill="#fdb462" stroke="black" cx="366" cy="-104" rx="107.64" ry="18"/>
<text text-anchor="middle" x="366" y="-99.8" font-family="Times,serif" font-size="14.00">StockTransactionService</text>
</g>
<!-- StockTransactionService&#45;&gt;StockModule -->
<g id="edge9" class="edge">
<title>StockTransactionService&#45;&gt;StockModule</title>
<path fill="none" stroke="black" d="M443.93,-116.53C443.93,-116.53 443.93,-140.85 443.93,-140.85"/>
<polygon fill="black" stroke="black" points="440.43,-140.85 443.93,-150.85 447.43,-140.85 440.43,-140.85"/>
</g>
</g>
</svg>
