<?xml version="1.0" encoding="UTF-8" standalone="no"?>
<!DOCTYPE svg PUBLIC "-//W3C//DTD SVG 1.1//EN"
 "http://www.w3.org/Graphics/SVG/1.1/DTD/svg11.dtd">
<!-- Generated by graphviz version 2.47.0 (20210316.0004)
 -->
<!-- Title: dependencies Pages: 1 -->
<svg width="1466pt" height="284pt"
 viewBox="0.00 0.00 1466.00 284.00" xmlns="http://www.w3.org/2000/svg" xmlns:xlink="http://www.w3.org/1999/xlink">
<g id="graph0" class="graph" transform="scale(1 1) rotate(0) translate(4 280)">
<title>dependencies</title>
<polygon fill="white" stroke="transparent" points="-4,4 -4,-280 1462,-280 1462,4 -4,4"/>
<text text-anchor="start" x="708.01" y="-42.4" font-family="Times-12" font-weight="bold" font-size="14.00">Legend</text>
<polygon fill="#ffffb3" stroke="transparent" points="495,-10 495,-30 515,-30 515,-10 495,-10"/>
<text text-anchor="start" x="518.63" y="-15.4" font-family="Times-12" font-size="14.00"> &#160;Declarations</text>
<polygon fill="#8dd3c7" stroke="transparent" points="608,-10 608,-30 628,-30 628,-10 608,-10"/>
<text text-anchor="start" x="631.73" y="-15.4" font-family="Times-12" font-size="14.00"> &#160;Module</text>
<polygon fill="#80b1d3" stroke="transparent" points="694,-10 694,-30 714,-30 714,-10 694,-10"/>
<text text-anchor="start" x="717.78" y="-15.4" font-family="Times-12" font-size="14.00"> &#160;Bootstrap</text>
<polygon fill="#fdb462" stroke="transparent" points="791,-10 791,-30 811,-30 811,-10 791,-10"/>
<text text-anchor="start" x="814.67" y="-15.4" font-family="Times-12" font-size="14.00"> &#160;Providers</text>
<polygon fill="#fb8072" stroke="transparent" points="887,-10 887,-30 907,-30 907,-10 887,-10"/>
<text text-anchor="start" x="910.73" y="-15.4" font-family="Times-12" font-size="14.00"> &#160;Exports</text>
<g id="clust1" class="cluster">
<title>cluster_StockModule</title>
<polygon fill="none" stroke="black" stroke-dasharray="1,5" points="8,-70 8,-268 1450,-268 1450,-70 8,-70"/>
</g>
<g id="clust6" class="cluster">
<title>cluster_StockModule_providers</title>
<polygon fill="none" stroke="black" points="250,-78 250,-130 1442,-130 1442,-78 250,-78"/>
</g>
<g id="clust4" class="cluster">
<title>cluster_StockModule_exports</title>
<polygon fill="none" stroke="black" points="402,-208 402,-260 826,-260 826,-208 402,-208"/>
</g>
<g id="clust3" class="cluster">
<title>cluster_StockModule_imports</title>
<polygon fill="none" stroke="black" points="16,-78 16,-130 242,-130 242,-78 16,-78"/>
</g>
<!-- BranchModule -->
<g id="node1" class="node">
<title>BranchModule</title>
<polygon fill="#8dd3c7" stroke="black" points="233.98,-122 230.98,-126 209.98,-126 206.98,-122 134.02,-122 134.02,-86 233.98,-86 233.98,-122"/>
<text text-anchor="middle" x="184" y="-99.8" font-family="Times,serif" font-size="14.00">BranchModule</text>
</g>
<!-- StockModule -->
<g id="node3" class="node">
<title>StockModule</title>
<polygon fill="#8dd3c7" stroke="black" points="679.94,-187 676.94,-191 655.94,-191 652.94,-187 588.06,-187 588.06,-151 679.94,-151 679.94,-187"/>
<text text-anchor="middle" x="634" y="-164.8" font-family="Times,serif" font-size="14.00">StockModule</text>
</g>
<!-- BranchModule&#45;&gt;StockModule -->
<g id="edge1" class="edge">
<title>BranchModule&#45;&gt;StockModule</title>
<path fill="none" stroke="black" d="M184,-122.27C184,-140.56 184,-166 184,-166 184,-166 577.96,-166 577.96,-166"/>
<polygon fill="black" stroke="black" points="577.96,-169.5 587.96,-166 577.96,-162.5 577.96,-169.5"/>
</g>
<!-- UsersModule -->
<g id="node2" class="node">
<title>UsersModule</title>
<polygon fill="#8dd3c7" stroke="black" points="115.92,-122 112.92,-126 91.92,-126 88.92,-122 24.08,-122 24.08,-86 115.92,-86 115.92,-122"/>
<text text-anchor="middle" x="70" y="-99.8" font-family="Times,serif" font-size="14.00">UsersModule</text>
</g>
<!-- UsersModule&#45;&gt;StockModule -->
<g id="edge2" class="edge">
<title>UsersModule&#45;&gt;StockModule</title>
<path fill="none" stroke="black" d="M70,-122.13C70,-142.57 70,-173 70,-173 70,-173 577.85,-173 577.85,-173"/>
<polygon fill="black" stroke="black" points="577.85,-176.5 587.85,-173 577.85,-169.5 577.85,-176.5"/>
</g>
<!-- StockItemService  -->
<g id="node4" class="node">
<title>StockItemService </title>
<polygon fill="#fb8072" stroke="black" points="817.52,-252 698.48,-252 698.48,-216 817.52,-216 817.52,-252"/>
<text text-anchor="middle" x="758" y="-229.8" font-family="Times,serif" font-size="14.00">StockItemService </text>
</g>
<!-- StockModule&#45;&gt;StockItemService  -->
<g id="edge3" class="edge">
<title>StockModule&#45;&gt;StockItemService </title>
<path fill="none" stroke="black" stroke-dasharray="5,2" d="M679.91,-180C710.87,-180 746.09,-180 746.09,-180 746.09,-180 746.09,-205.72 746.09,-205.72"/>
<polygon fill="black" stroke="black" points="742.59,-205.72 746.09,-215.72 749.59,-205.72 742.59,-205.72"/>
</g>
<!-- StockService  -->
<g id="node5" class="node">
<title>StockService </title>
<polygon fill="#fb8072" stroke="black" points="680.87,-252 587.13,-252 587.13,-216 680.87,-216 680.87,-252"/>
<text text-anchor="middle" x="634" y="-229.8" font-family="Times,serif" font-size="14.00">StockService </text>
</g>
<!-- StockModule&#45;&gt;StockService  -->
<g id="edge4" class="edge">
<title>StockModule&#45;&gt;StockService </title>
<path fill="none" stroke="black" stroke-dasharray="5,2" d="M634,-187.11C634,-187.11 634,-205.99 634,-205.99"/>
<polygon fill="black" stroke="black" points="630.5,-205.99 634,-215.99 637.5,-205.99 630.5,-205.99"/>
</g>
<!-- StockTransactionService  -->
<g id="node6" class="node">
<title>StockTransactionService </title>
<polygon fill="#fb8072" stroke="black" points="569.95,-252 410.05,-252 410.05,-216 569.95,-216 569.95,-252"/>
<text text-anchor="middle" x="490" y="-229.8" font-family="Times,serif" font-size="14.00">StockTransactionService </text>
</g>
<!-- StockModule&#45;&gt;StockTransactionService  -->
<g id="edge5" class="edge">
<title>StockModule&#45;&gt;StockTransactionService </title>
<path fill="none" stroke="black" stroke-dasharray="5,2" d="M588.16,-180C560.62,-180 530.87,-180 530.87,-180 530.87,-180 530.87,-205.72 530.87,-205.72"/>
<polygon fill="black" stroke="black" points="527.37,-205.72 530.87,-215.72 534.37,-205.72 527.37,-205.72"/>
</g>
<!-- StockGardService -->
<g id="node7" class="node">
<title>StockGardService</title>
<ellipse fill="#fdb462" stroke="black" cx="1353" cy="-104" rx="81.08" ry="18"/>
<text text-anchor="middle" x="1353" y="-99.8" font-family="Times,serif" font-size="14.00">StockGardService</text>
</g>
<!-- StockGardService&#45;&gt;StockModule -->
<g id="edge6" class="edge">
<title>StockGardService&#45;&gt;StockModule</title>
<path fill="none" stroke="black" d="M1353,-122.13C1353,-142.57 1353,-173 1353,-173 1353,-173 689.8,-173 689.8,-173"/>
<polygon fill="black" stroke="black" points="689.8,-169.5 679.8,-173 689.8,-176.5 689.8,-169.5"/>
</g>
<!-- StockItemLogsService -->
<g id="node8" class="node">
<title>StockItemLogsService</title>
<ellipse fill="#fdb462" stroke="black" cx="1155" cy="-104" rx="98.99" ry="18"/>
<text text-anchor="middle" x="1155" y="-99.8" font-family="Times,serif" font-size="14.00">StockItemLogsService</text>
</g>
<!-- StockItemLogsService&#45;&gt;StockModule -->
<g id="edge7" class="edge">
<title>StockItemLogsService&#45;&gt;StockModule</title>
<path fill="none" stroke="black" d="M1155,-122.27C1155,-140.56 1155,-166 1155,-166 1155,-166 689.78,-166 689.78,-166"/>
<polygon fill="black" stroke="black" points="689.78,-162.5 679.78,-166 689.78,-169.5 689.78,-162.5"/>
</g>
<!-- StockItemQuantityService -->
<g id="node9" class="node">
<title>StockItemQuantityService</title>
<ellipse fill="#fdb462" stroke="black" cx="925" cy="-104" rx="113.46" ry="18"/>
<text text-anchor="middle" x="925" y="-99.8" font-family="Times,serif" font-size="14.00">StockItemQuantityService</text>
</g>
<!-- StockItemQuantityService&#45;&gt;StockModule -->
<g id="edge8" class="edge">
<title>StockItemQuantityService&#45;&gt;StockModule</title>
<path fill="none" stroke="black" d="M928,-122.01C928,-138.05 928,-159 928,-159 928,-159 689.94,-159 689.94,-159"/>
<polygon fill="black" stroke="black" points="689.94,-155.5 679.94,-159 689.94,-162.5 689.94,-155.5"/>
</g>
<!-- StockItemService -->
<g id="node10" class="node">
<title>StockItemService</title>
<ellipse fill="#fdb462" stroke="black" cx="714" cy="-104" rx="79.87" ry="18"/>
<text text-anchor="middle" x="714" y="-99.8" font-family="Times,serif" font-size="14.00">StockItemService</text>
</g>
<!-- StockItemService&#45;&gt;StockModule -->
<g id="edge9" class="edge">
<title>StockItemService&#45;&gt;StockModule</title>
<path fill="none" stroke="black" d="M657.02,-116.84C657.02,-116.84 657.02,-140.52 657.02,-140.52"/>
<polygon fill="black" stroke="black" points="653.52,-140.52 657.02,-150.52 660.52,-140.52 653.52,-140.52"/>
</g>
<!-- StockService -->
<g id="node11" class="node">
<title>StockService</title>
<ellipse fill="#fdb462" stroke="black" cx="554" cy="-104" rx="61.98" ry="18"/>
<text text-anchor="middle" x="554" y="-99.8" font-family="Times,serif" font-size="14.00">StockService</text>
</g>
<!-- StockService&#45;&gt;StockModule -->
<g id="edge10" class="edge">
<title>StockService&#45;&gt;StockModule</title>
<path fill="none" stroke="black" d="M602.13,-115.62C602.13,-115.62 602.13,-140.85 602.13,-140.85"/>
<polygon fill="black" stroke="black" points="598.63,-140.85 602.13,-150.85 605.63,-140.85 598.63,-140.85"/>
</g>
<!-- StockTransactionService -->
<g id="node12" class="node">
<title>StockTransactionService</title>
<ellipse fill="#fdb462" stroke="black" cx="366" cy="-104" rx="107.64" ry="18"/>
<text text-anchor="middle" x="366" y="-99.8" font-family="Times,serif" font-size="14.00">StockTransactionService</text>
</g>
<!-- StockTransactionService&#45;&gt;StockModule -->
<g id="edge11" class="edge">
<title>StockTransactionService&#45;&gt;StockModule</title>
<path fill="none" stroke="black" d="M441.92,-116.76C441.92,-133 441.92,-159 441.92,-159 441.92,-159 577.99,-159 577.99,-159"/>
<polygon fill="black" stroke="black" points="577.99,-162.5 587.99,-159 577.99,-155.5 577.99,-162.5"/>
</g>
</g>
</svg>
