<?xml version="1.0" encoding="UTF-8" standalone="no"?>
<!DOCTYPE svg PUBLIC "-//W3C//DTD SVG 1.1//EN"
 "http://www.w3.org/Graphics/SVG/1.1/DTD/svg11.dtd">
<!-- Generated by graphviz version 2.47.0 (20210316.0004)
 -->
<!-- Title: dependencies Pages: 1 -->
<svg width="575pt" height="211pt"
 viewBox="0.00 0.00 575.00 211.00" xmlns="http://www.w3.org/2000/svg" xmlns:xlink="http://www.w3.org/1999/xlink">
<g id="graph0" class="graph" transform="scale(1 1) rotate(0) translate(4 207)">
<title>dependencies</title>
<polygon fill="white" stroke="transparent" points="-4,4 -4,-207 571,-207 571,4 -4,4"/>
<text text-anchor="start" x="262.51" y="-42.4" font-family="Times-12" font-weight="bold" font-size="14.00">Legend</text>
<polygon fill="#ffffb3" stroke="transparent" points="49.5,-10 49.5,-30 69.5,-30 69.5,-10 49.5,-10"/>
<text text-anchor="start" x="73.13" y="-15.4" font-family="Times-12" font-size="14.00"> &#160;Declarations</text>
<polygon fill="#8dd3c7" stroke="transparent" points="162.5,-10 162.5,-30 182.5,-30 182.5,-10 162.5,-10"/>
<text text-anchor="start" x="186.23" y="-15.4" font-family="Times-12" font-size="14.00"> &#160;Module</text>
<polygon fill="#80b1d3" stroke="transparent" points="248.5,-10 248.5,-30 268.5,-30 268.5,-10 248.5,-10"/>
<text text-anchor="start" x="272.28" y="-15.4" font-family="Times-12" font-size="14.00"> &#160;Bootstrap</text>
<polygon fill="#fdb462" stroke="transparent" points="345.5,-10 345.5,-30 365.5,-30 365.5,-10 345.5,-10"/>
<text text-anchor="start" x="369.17" y="-15.4" font-family="Times-12" font-size="14.00"> &#160;Providers</text>
<polygon fill="#fb8072" stroke="transparent" points="441.5,-10 441.5,-30 461.5,-30 461.5,-10 441.5,-10"/>
<text text-anchor="start" x="465.23" y="-15.4" font-family="Times-12" font-size="14.00"> &#160;Exports</text>
<g id="clust1" class="cluster">
<title>cluster_AuthModule</title>
<polygon fill="none" stroke="black" stroke-dasharray="1,5" points="8,-70 8,-195 559,-195 559,-70 8,-70"/>
</g>
<g id="clust3" class="cluster">
<title>cluster_AuthModule_imports</title>
<polygon fill="none" stroke="black" points="443,-78 443,-130 551,-130 551,-78 443,-78"/>
</g>
<g id="clust6" class="cluster">
<title>cluster_AuthModule_providers</title>
<polygon fill="none" stroke="black" points="16,-78 16,-130 435,-130 435,-78 16,-78"/>
</g>
<!-- UsersModule -->
<g id="node1" class="node">
<title>UsersModule</title>
<polygon fill="#8dd3c7" stroke="black" points="542.92,-122 539.92,-126 518.92,-126 515.92,-122 451.08,-122 451.08,-86 542.92,-86 542.92,-122"/>
<text text-anchor="middle" x="497" y="-99.8" font-family="Times,serif" font-size="14.00">UsersModule</text>
</g>
<!-- AuthModule -->
<g id="node2" class="node">
<title>AuthModule</title>
<polygon fill="#8dd3c7" stroke="black" points="347.55,-187 344.55,-191 323.55,-191 320.55,-187 260.45,-187 260.45,-151 347.55,-151 347.55,-187"/>
<text text-anchor="middle" x="304" y="-164.8" font-family="Times,serif" font-size="14.00">AuthModule</text>
</g>
<!-- UsersModule&#45;&gt;AuthModule -->
<g id="edge1" class="edge">
<title>UsersModule&#45;&gt;AuthModule</title>
<path fill="none" stroke="black" d="M497,-122.11C497,-141.34 497,-169 497,-169 497,-169 357.79,-169 357.79,-169"/>
<polygon fill="black" stroke="black" points="357.79,-165.5 347.79,-169 357.79,-172.5 357.79,-165.5"/>
</g>
<!-- ATStrategy -->
<g id="node3" class="node">
<title>ATStrategy</title>
<ellipse fill="#fdb462" stroke="black" cx="371" cy="-104" rx="56.18" ry="18"/>
<text text-anchor="middle" x="371" y="-99.8" font-family="Times,serif" font-size="14.00">ATStrategy</text>
</g>
<!-- ATStrategy&#45;&gt;AuthModule -->
<g id="edge2" class="edge">
<title>ATStrategy&#45;&gt;AuthModule</title>
<path fill="none" stroke="black" d="M331.34,-116.84C331.34,-116.84 331.34,-140.52 331.34,-140.52"/>
<polygon fill="black" stroke="black" points="327.84,-140.52 331.34,-150.52 334.84,-140.52 327.84,-140.52"/>
</g>
<!-- AuthService -->
<g id="node4" class="node">
<title>AuthService</title>
<ellipse fill="#fdb462" stroke="black" cx="238" cy="-104" rx="59.11" ry="18"/>
<text text-anchor="middle" x="238" y="-99.8" font-family="Times,serif" font-size="14.00">AuthService</text>
</g>
<!-- AuthService&#45;&gt;AuthModule -->
<g id="edge3" class="edge">
<title>AuthService&#45;&gt;AuthModule</title>
<path fill="none" stroke="black" d="M278.77,-117.15C278.77,-117.15 278.77,-140.69 278.77,-140.69"/>
<polygon fill="black" stroke="black" points="275.27,-140.69 278.77,-150.69 282.27,-140.69 275.27,-140.69"/>
</g>
<!-- GoogleService -->
<g id="node5" class="node">
<title>GoogleService</title>
<ellipse fill="#fdb462" stroke="black" cx="92" cy="-104" rx="68.34" ry="18"/>
<text text-anchor="middle" x="92" y="-99.8" font-family="Times,serif" font-size="14.00">GoogleService</text>
</g>
<!-- GoogleService&#45;&gt;AuthModule -->
<g id="edge4" class="edge">
<title>GoogleService&#45;&gt;AuthModule</title>
<path fill="none" stroke="black" d="M92,-122.11C92,-141.34 92,-169 92,-169 92,-169 250.33,-169 250.33,-169"/>
<polygon fill="black" stroke="black" points="250.33,-172.5 260.33,-169 250.33,-165.5 250.33,-172.5"/>
</g>
</g>
</svg>
