<?xml version="1.0" encoding="UTF-8" standalone="no"?>
<!DOCTYPE svg PUBLIC "-//W3C//DTD SVG 1.1//EN"
 "http://www.w3.org/Graphics/SVG/1.1/DTD/svg11.dtd">
<!-- Generated by graphviz version 2.47.0 (20210316.0004)
 -->
<!-- Title: dependencies Pages: 1 -->
<svg width="504pt" height="284pt"
 viewBox="0.00 0.00 504.00 284.00" xmlns="http://www.w3.org/2000/svg" xmlns:xlink="http://www.w3.org/1999/xlink">
<g id="graph0" class="graph" transform="scale(1 1) rotate(0) translate(4 280)">
<title>dependencies</title>
<polygon fill="white" stroke="transparent" points="-4,4 -4,-280 500,-280 500,4 -4,4"/>
<text text-anchor="start" x="227.01" y="-42.4" font-family="Times-12" font-weight="bold" font-size="14.00">Legend</text>
<polygon fill="#ffffb3" stroke="transparent" points="14,-10 14,-30 34,-30 34,-10 14,-10"/>
<text text-anchor="start" x="37.63" y="-15.4" font-family="Times-12" font-size="14.00"> &#160;Declarations</text>
<polygon fill="#8dd3c7" stroke="transparent" points="127,-10 127,-30 147,-30 147,-10 127,-10"/>
<text text-anchor="start" x="150.73" y="-15.4" font-family="Times-12" font-size="14.00"> &#160;Module</text>
<polygon fill="#80b1d3" stroke="transparent" points="213,-10 213,-30 233,-30 233,-10 213,-10"/>
<text text-anchor="start" x="236.78" y="-15.4" font-family="Times-12" font-size="14.00"> &#160;Bootstrap</text>
<polygon fill="#fdb462" stroke="transparent" points="310,-10 310,-30 330,-30 330,-10 310,-10"/>
<text text-anchor="start" x="333.67" y="-15.4" font-family="Times-12" font-size="14.00"> &#160;Providers</text>
<polygon fill="#fb8072" stroke="transparent" points="406,-10 406,-30 426,-30 426,-10 406,-10"/>
<text text-anchor="start" x="429.73" y="-15.4" font-family="Times-12" font-size="14.00"> &#160;Exports</text>
<g id="clust1" class="cluster">
<title>cluster_EmployeeModule</title>
<polygon fill="none" stroke="black" stroke-dasharray="1,5" points="86,-70 86,-268 410,-268 410,-70 86,-70"/>
</g>
<g id="clust3" class="cluster">
<title>cluster_EmployeeModule_imports</title>
<polygon fill="none" stroke="black" points="276,-78 276,-130 402,-130 402,-78 276,-78"/>
</g>
<g id="clust4" class="cluster">
<title>cluster_EmployeeModule_exports</title>
<polygon fill="none" stroke="black" points="191,-208 191,-260 325,-260 325,-208 191,-208"/>
</g>
<g id="clust6" class="cluster">
<title>cluster_EmployeeModule_providers</title>
<polygon fill="none" stroke="black" points="94,-78 94,-130 268,-130 268,-78 94,-78"/>
</g>
<!-- LocationModule -->
<g id="node1" class="node">
<title>LocationModule</title>
<polygon fill="#8dd3c7" stroke="black" points="393.81,-122 390.81,-126 369.81,-126 366.81,-122 284.19,-122 284.19,-86 393.81,-86 393.81,-122"/>
<text text-anchor="middle" x="339" y="-99.8" font-family="Times,serif" font-size="14.00">LocationModule</text>
</g>
<!-- EmployeeModule -->
<g id="node2" class="node">
<title>EmployeeModule</title>
<polygon fill="#8dd3c7" stroke="black" points="316.31,-187 313.31,-191 292.31,-191 289.31,-187 199.69,-187 199.69,-151 316.31,-151 316.31,-187"/>
<text text-anchor="middle" x="258" y="-164.8" font-family="Times,serif" font-size="14.00">EmployeeModule</text>
</g>
<!-- LocationModule&#45;&gt;EmployeeModule -->
<g id="edge1" class="edge">
<title>LocationModule&#45;&gt;EmployeeModule</title>
<path fill="none" stroke="black" d="M300.25,-122.11C300.25,-122.11 300.25,-140.99 300.25,-140.99"/>
<polygon fill="black" stroke="black" points="296.75,-140.99 300.25,-150.99 303.75,-140.99 296.75,-140.99"/>
</g>
<!-- EmployeeService  -->
<g id="node3" class="node">
<title>EmployeeService </title>
<polygon fill="#fb8072" stroke="black" points="317.24,-252 198.76,-252 198.76,-216 317.24,-216 317.24,-252"/>
<text text-anchor="middle" x="258" y="-229.8" font-family="Times,serif" font-size="14.00">EmployeeService </text>
</g>
<!-- EmployeeModule&#45;&gt;EmployeeService  -->
<g id="edge2" class="edge">
<title>EmployeeModule&#45;&gt;EmployeeService </title>
<path fill="none" stroke="black" stroke-dasharray="5,2" d="M258,-187.11C258,-187.11 258,-205.99 258,-205.99"/>
<polygon fill="black" stroke="black" points="254.5,-205.99 258,-215.99 261.5,-205.99 254.5,-205.99"/>
</g>
<!-- EmployeeService -->
<g id="node4" class="node">
<title>EmployeeService</title>
<ellipse fill="#fdb462" stroke="black" cx="181" cy="-104" rx="79.29" ry="18"/>
<text text-anchor="middle" x="181" y="-99.8" font-family="Times,serif" font-size="14.00">EmployeeService</text>
</g>
<!-- EmployeeService&#45;&gt;EmployeeModule -->
<g id="edge3" class="edge">
<title>EmployeeService&#45;&gt;EmployeeModule</title>
<path fill="none" stroke="black" d="M229.99,-118.43C229.99,-118.43 229.99,-140.89 229.99,-140.89"/>
<polygon fill="black" stroke="black" points="226.49,-140.89 229.99,-150.89 233.49,-140.89 226.49,-140.89"/>
</g>
</g>
</svg>
