<?xml version="1.0" encoding="UTF-8" standalone="no"?>
<!DOCTYPE svg PUBLIC "-//W3C//DTD SVG 1.1//EN"
 "http://www.w3.org/Graphics/SVG/1.1/DTD/svg11.dtd">
<!-- Generated by graphviz version 2.47.0 (20210316.0004)
 -->
<!-- Title: dependencies Pages: 1 -->
<svg width="1100pt" height="284pt"
 viewBox="0.00 0.00 1100.00 284.00" xmlns="http://www.w3.org/2000/svg" xmlns:xlink="http://www.w3.org/1999/xlink">
<g id="graph0" class="graph" transform="scale(1 1) rotate(0) translate(4 280)">
<title>dependencies</title>
<polygon fill="white" stroke="transparent" points="-4,4 -4,-280 1096,-280 1096,4 -4,4"/>
<text text-anchor="start" x="525.01" y="-42.4" font-family="Times-12" font-weight="bold" font-size="14.00">Legend</text>
<polygon fill="#ffffb3" stroke="transparent" points="312,-10 312,-30 332,-30 332,-10 312,-10"/>
<text text-anchor="start" x="335.63" y="-15.4" font-family="Times-12" font-size="14.00"> &#160;Declarations</text>
<polygon fill="#8dd3c7" stroke="transparent" points="425,-10 425,-30 445,-30 445,-10 425,-10"/>
<text text-anchor="start" x="448.73" y="-15.4" font-family="Times-12" font-size="14.00"> &#160;Module</text>
<polygon fill="#80b1d3" stroke="transparent" points="511,-10 511,-30 531,-30 531,-10 511,-10"/>
<text text-anchor="start" x="534.78" y="-15.4" font-family="Times-12" font-size="14.00"> &#160;Bootstrap</text>
<polygon fill="#fdb462" stroke="transparent" points="608,-10 608,-30 628,-30 628,-10 608,-10"/>
<text text-anchor="start" x="631.67" y="-15.4" font-family="Times-12" font-size="14.00"> &#160;Providers</text>
<polygon fill="#fb8072" stroke="transparent" points="704,-10 704,-30 724,-30 724,-10 704,-10"/>
<text text-anchor="start" x="727.73" y="-15.4" font-family="Times-12" font-size="14.00"> &#160;Exports</text>
<g id="clust1" class="cluster">
<title>cluster_EmployeeModule</title>
<polygon fill="none" stroke="black" stroke-dasharray="1,5" points="8,-70 8,-268 1084,-268 1084,-70 8,-70"/>
</g>
<g id="clust6" class="cluster">
<title>cluster_EmployeeModule_providers</title>
<polygon fill="none" stroke="black" points="377,-78 377,-130 1076,-130 1076,-78 377,-78"/>
</g>
<g id="clust3" class="cluster">
<title>cluster_EmployeeModule_imports</title>
<polygon fill="none" stroke="black" points="16,-78 16,-130 369,-130 369,-78 16,-78"/>
</g>
<g id="clust4" class="cluster">
<title>cluster_EmployeeModule_exports</title>
<polygon fill="none" stroke="black" points="371,-208 371,-260 505,-260 505,-208 371,-208"/>
</g>
<!-- BranchModule -->
<g id="node1" class="node">
<title>BranchModule</title>
<polygon fill="#8dd3c7" stroke="black" points="360.98,-122 357.98,-126 336.98,-126 333.98,-122 261.02,-122 261.02,-86 360.98,-86 360.98,-122"/>
<text text-anchor="middle" x="311" y="-99.8" font-family="Times,serif" font-size="14.00">BranchModule</text>
</g>
<!-- EmployeeModule -->
<g id="node4" class="node">
<title>EmployeeModule</title>
<polygon fill="#8dd3c7" stroke="black" points="496.31,-187 493.31,-191 472.31,-191 469.31,-187 379.69,-187 379.69,-151 496.31,-151 496.31,-187"/>
<text text-anchor="middle" x="438" y="-164.8" font-family="Times,serif" font-size="14.00">EmployeeModule</text>
</g>
<!-- BranchModule&#45;&gt;EmployeeModule -->
<g id="edge1" class="edge">
<title>BranchModule&#45;&gt;EmployeeModule</title>
<path fill="none" stroke="black" d="M311,-122.03C311,-138.4 311,-160 311,-160 311,-160 369.7,-160 369.7,-160"/>
<polygon fill="black" stroke="black" points="369.7,-163.5 379.7,-160 369.7,-156.5 369.7,-163.5"/>
</g>
<!-- LocationModule -->
<g id="node2" class="node">
<title>LocationModule</title>
<polygon fill="#8dd3c7" stroke="black" points="242.81,-122 239.81,-126 218.81,-126 215.81,-122 133.19,-122 133.19,-86 242.81,-86 242.81,-122"/>
<text text-anchor="middle" x="188" y="-99.8" font-family="Times,serif" font-size="14.00">LocationModule</text>
</g>
<!-- LocationModule&#45;&gt;EmployeeModule -->
<g id="edge2" class="edge">
<title>LocationModule&#45;&gt;EmployeeModule</title>
<path fill="none" stroke="black" d="M188,-122.11C188,-141.34 188,-169 188,-169 188,-169 369.7,-169 369.7,-169"/>
<polygon fill="black" stroke="black" points="369.7,-172.5 379.7,-169 369.7,-165.5 369.7,-172.5"/>
</g>
<!-- UsersModule -->
<g id="node3" class="node">
<title>UsersModule</title>
<polygon fill="#8dd3c7" stroke="black" points="115.92,-122 112.92,-126 91.92,-126 88.92,-122 24.08,-122 24.08,-86 115.92,-86 115.92,-122"/>
<text text-anchor="middle" x="70" y="-99.8" font-family="Times,serif" font-size="14.00">UsersModule</text>
</g>
<!-- UsersModule&#45;&gt;EmployeeModule -->
<g id="edge3" class="edge">
<title>UsersModule&#45;&gt;EmployeeModule</title>
<path fill="none" stroke="black" d="M70,-122.29C70,-144.21 70,-178 70,-178 70,-178 369.69,-178 369.69,-178"/>
<polygon fill="black" stroke="black" points="369.69,-181.5 379.69,-178 369.69,-174.5 369.69,-181.5"/>
</g>
<!-- EmployeeService  -->
<g id="node5" class="node">
<title>EmployeeService </title>
<polygon fill="#fb8072" stroke="black" points="497.24,-252 378.76,-252 378.76,-216 497.24,-216 497.24,-252"/>
<text text-anchor="middle" x="438" y="-229.8" font-family="Times,serif" font-size="14.00">EmployeeService </text>
</g>
<!-- EmployeeModule&#45;&gt;EmployeeService  -->
<g id="edge4" class="edge">
<title>EmployeeModule&#45;&gt;EmployeeService </title>
<path fill="none" stroke="black" stroke-dasharray="5,2" d="M438,-187.11C438,-187.11 438,-205.99 438,-205.99"/>
<polygon fill="black" stroke="black" points="434.5,-205.99 438,-215.99 441.5,-205.99 434.5,-205.99"/>
</g>
<!-- AttendenceService -->
<g id="node6" class="node">
<title>AttendenceService</title>
<ellipse fill="#fdb462" stroke="black" cx="984" cy="-104" rx="83.93" ry="18"/>
<text text-anchor="middle" x="984" y="-99.8" font-family="Times,serif" font-size="14.00">AttendenceService</text>
</g>
<!-- AttendenceService&#45;&gt;EmployeeModule -->
<g id="edge5" class="edge">
<title>AttendenceService&#45;&gt;EmployeeModule</title>
<path fill="none" stroke="black" d="M984,-122.29C984,-144.21 984,-178 984,-178 984,-178 506.17,-178 506.17,-178"/>
<polygon fill="black" stroke="black" points="506.17,-174.5 496.17,-178 506.17,-181.5 506.17,-174.5"/>
</g>
<!-- EmpPdrActionService -->
<g id="node7" class="node">
<title>EmpPdrActionService</title>
<ellipse fill="#fdb462" stroke="black" cx="784" cy="-104" rx="97.85" ry="18"/>
<text text-anchor="middle" x="784" y="-99.8" font-family="Times,serif" font-size="14.00">EmpPdrActionService</text>
</g>
<!-- EmpPdrActionService&#45;&gt;EmployeeModule -->
<g id="edge6" class="edge">
<title>EmpPdrActionService&#45;&gt;EmployeeModule</title>
<path fill="none" stroke="black" d="M784,-122.11C784,-141.34 784,-169 784,-169 784,-169 506.3,-169 506.3,-169"/>
<polygon fill="black" stroke="black" points="506.3,-165.5 496.3,-169 506.3,-172.5 506.3,-165.5"/>
</g>
<!-- EmployeeService -->
<g id="node8" class="node">
<title>EmployeeService</title>
<ellipse fill="#fdb462" stroke="black" cx="589" cy="-104" rx="79.29" ry="18"/>
<text text-anchor="middle" x="589" y="-99.8" font-family="Times,serif" font-size="14.00">EmployeeService</text>
</g>
<!-- EmployeeService&#45;&gt;EmployeeModule -->
<g id="edge7" class="edge">
<title>EmployeeService&#45;&gt;EmployeeModule</title>
<path fill="none" stroke="black" d="M589,-122.03C589,-138.4 589,-160 589,-160 589,-160 506.38,-160 506.38,-160"/>
<polygon fill="black" stroke="black" points="506.38,-156.5 496.38,-160 506.38,-163.5 506.38,-156.5"/>
</g>
<!-- PdrService -->
<g id="node9" class="node">
<title>PdrService</title>
<ellipse fill="#fdb462" stroke="black" cx="438" cy="-104" rx="53.31" ry="18"/>
<text text-anchor="middle" x="438" y="-99.8" font-family="Times,serif" font-size="14.00">PdrService</text>
</g>
<!-- PdrService&#45;&gt;EmployeeModule -->
<g id="edge8" class="edge">
<title>PdrService&#45;&gt;EmployeeModule</title>
<path fill="none" stroke="black" d="M438,-122.11C438,-122.11 438,-140.99 438,-140.99"/>
<polygon fill="black" stroke="black" points="434.5,-140.99 438,-150.99 441.5,-140.99 434.5,-140.99"/>
</g>
</g>
</svg>
