<?xml version="1.0" encoding="UTF-8" standalone="no"?>
<!DOCTYPE svg PUBLIC "-//W3C//DTD SVG 1.1//EN"
 "http://www.w3.org/Graphics/SVG/1.1/DTD/svg11.dtd">
<!-- Generated by graphviz version 2.47.0 (20210316.0004)
 -->
<!-- Title: dependencies Pages: 1 -->
<svg width="834pt" height="211pt"
 viewBox="0.00 0.00 834.00 211.00" xmlns="http://www.w3.org/2000/svg" xmlns:xlink="http://www.w3.org/1999/xlink">
<g id="graph0" class="graph" transform="scale(1 1) rotate(0) translate(4 207)">
<title>dependencies</title>
<polygon fill="white" stroke="transparent" points="-4,4 -4,-207 830,-207 830,4 -4,4"/>
<text text-anchor="start" x="392.01" y="-42.4" font-family="Times-12" font-weight="bold" font-size="14.00">Legend</text>
<polygon fill="#ffffb3" stroke="transparent" points="179,-10 179,-30 199,-30 199,-10 179,-10"/>
<text text-anchor="start" x="202.63" y="-15.4" font-family="Times-12" font-size="14.00"> &#160;Declarations</text>
<polygon fill="#8dd3c7" stroke="transparent" points="292,-10 292,-30 312,-30 312,-10 292,-10"/>
<text text-anchor="start" x="315.73" y="-15.4" font-family="Times-12" font-size="14.00"> &#160;Module</text>
<polygon fill="#80b1d3" stroke="transparent" points="378,-10 378,-30 398,-30 398,-10 378,-10"/>
<text text-anchor="start" x="401.78" y="-15.4" font-family="Times-12" font-size="14.00"> &#160;Bootstrap</text>
<polygon fill="#fdb462" stroke="transparent" points="475,-10 475,-30 495,-30 495,-10 475,-10"/>
<text text-anchor="start" x="498.67" y="-15.4" font-family="Times-12" font-size="14.00"> &#160;Providers</text>
<polygon fill="#fb8072" stroke="transparent" points="571,-10 571,-30 591,-30 591,-10 571,-10"/>
<text text-anchor="start" x="594.73" y="-15.4" font-family="Times-12" font-size="14.00"> &#160;Exports</text>
<g id="clust1" class="cluster">
<title>cluster_PaymentModule</title>
<polygon fill="none" stroke="black" stroke-dasharray="1,5" points="8,-70 8,-195 818,-195 818,-70 8,-70"/>
</g>
<g id="clust3" class="cluster">
<title>cluster_PaymentModule_imports</title>
<polygon fill="none" stroke="black" points="474,-78 474,-130 810,-130 810,-78 474,-78"/>
</g>
<g id="clust6" class="cluster">
<title>cluster_PaymentModule_providers</title>
<polygon fill="none" stroke="black" points="16,-78 16,-130 466,-130 466,-78 16,-78"/>
</g>
<!-- BranchModule -->
<g id="node1" class="node">
<title>BranchModule</title>
<polygon fill="#8dd3c7" stroke="black" points="801.98,-122 798.98,-126 777.98,-126 774.98,-122 702.02,-122 702.02,-86 801.98,-86 801.98,-122"/>
<text text-anchor="middle" x="752" y="-99.8" font-family="Times,serif" font-size="14.00">BranchModule</text>
</g>
<!-- PaymentModule -->
<g id="node4" class="node">
<title>PaymentModule</title>
<polygon fill="#8dd3c7" stroke="black" points="517.04,-187 514.04,-191 493.04,-191 490.04,-187 408.96,-187 408.96,-151 517.04,-151 517.04,-187"/>
<text text-anchor="middle" x="463" y="-164.8" font-family="Times,serif" font-size="14.00">PaymentModule</text>
</g>
<!-- BranchModule&#45;&gt;PaymentModule -->
<g id="edge1" class="edge">
<title>BranchModule&#45;&gt;PaymentModule</title>
<path fill="none" stroke="black" d="M752,-122.28C752,-143.32 752,-175 752,-175 752,-175 527.36,-175 527.36,-175"/>
<polygon fill="black" stroke="black" points="527.36,-171.5 517.36,-175 527.36,-178.5 527.36,-171.5"/>
</g>
<!-- OrderModule -->
<g id="node2" class="node">
<title>OrderModule</title>
<polygon fill="#8dd3c7" stroke="black" points="684.19,-122 681.19,-126 660.19,-126 657.19,-122 591.81,-122 591.81,-86 684.19,-86 684.19,-122"/>
<text text-anchor="middle" x="638" y="-99.8" font-family="Times,serif" font-size="14.00">OrderModule</text>
</g>
<!-- OrderModule&#45;&gt;PaymentModule -->
<g id="edge2" class="edge">
<title>OrderModule&#45;&gt;PaymentModule</title>
<path fill="none" stroke="black" d="M638,-122.02C638,-139.37 638,-163 638,-163 638,-163 527.41,-163 527.41,-163"/>
<polygon fill="black" stroke="black" points="527.41,-159.5 517.41,-163 527.41,-166.5 527.41,-159.5"/>
</g>
<!-- UsersModule -->
<g id="node3" class="node">
<title>UsersModule</title>
<polygon fill="#8dd3c7" stroke="black" points="573.92,-122 570.92,-126 549.92,-126 546.92,-122 482.08,-122 482.08,-86 573.92,-86 573.92,-122"/>
<text text-anchor="middle" x="528" y="-99.8" font-family="Times,serif" font-size="14.00">UsersModule</text>
</g>
<!-- UsersModule&#45;&gt;PaymentModule -->
<g id="edge3" class="edge">
<title>UsersModule&#45;&gt;PaymentModule</title>
<path fill="none" stroke="black" d="M499.78,-122.11C499.78,-122.11 499.78,-140.99 499.78,-140.99"/>
<polygon fill="black" stroke="black" points="496.28,-140.99 499.78,-150.99 503.28,-140.99 496.28,-140.99"/>
</g>
<!-- CashService -->
<g id="node5" class="node">
<title>CashService</title>
<ellipse fill="#fdb462" stroke="black" cx="399" cy="-104" rx="59.11" ry="18"/>
<text text-anchor="middle" x="399" y="-99.8" font-family="Times,serif" font-size="14.00">CashService</text>
</g>
<!-- CashService&#45;&gt;PaymentModule -->
<g id="edge4" class="edge">
<title>CashService&#45;&gt;PaymentModule</title>
<path fill="none" stroke="black" d="M433.52,-118.75C433.52,-118.75 433.52,-140.59 433.52,-140.59"/>
<polygon fill="black" stroke="black" points="430.02,-140.59 433.52,-150.59 437.02,-140.59 430.02,-140.59"/>
</g>
<!-- PaymentService -->
<g id="node6" class="node">
<title>PaymentService</title>
<ellipse fill="#fdb462" stroke="black" cx="248" cy="-104" rx="73.57" ry="18"/>
<text text-anchor="middle" x="248" y="-99.8" font-family="Times,serif" font-size="14.00">PaymentService</text>
</g>
<!-- PaymentService&#45;&gt;PaymentModule -->
<g id="edge5" class="edge">
<title>PaymentService&#45;&gt;PaymentModule</title>
<path fill="none" stroke="black" d="M248,-122.02C248,-139.37 248,-163 248,-163 248,-163 398.75,-163 398.75,-163"/>
<polygon fill="black" stroke="black" points="398.75,-166.5 408.75,-163 398.75,-159.5 398.75,-166.5"/>
</g>
<!-- PaypalService -->
<g id="node7" class="node">
<title>PaypalService</title>
<ellipse fill="#fdb462" stroke="black" cx="90" cy="-104" rx="66.05" ry="18"/>
<text text-anchor="middle" x="90" y="-99.8" font-family="Times,serif" font-size="14.00">PaypalService</text>
</g>
<!-- PaypalService&#45;&gt;PaymentModule -->
<g id="edge6" class="edge">
<title>PaypalService&#45;&gt;PaymentModule</title>
<path fill="none" stroke="black" d="M90,-122.28C90,-143.32 90,-175 90,-175 90,-175 398.76,-175 398.76,-175"/>
<polygon fill="black" stroke="black" points="398.76,-178.5 408.76,-175 398.76,-171.5 398.76,-178.5"/>
</g>
</g>
</svg>
