<?xml version="1.0" encoding="UTF-8" standalone="no"?>
<!DOCTYPE svg PUBLIC "-//W3C//DTD SVG 1.1//EN"
 "http://www.w3.org/Graphics/SVG/1.1/DTD/svg11.dtd">
<!-- Generated by graphviz version 2.47.0 (20210316.0004)
 -->
<!-- Title: dependencies Pages: 1 -->
<svg width="2174pt" height="211pt"
 viewBox="0.00 0.00 2174.00 211.00" xmlns="http://www.w3.org/2000/svg" xmlns:xlink="http://www.w3.org/1999/xlink">
<g id="graph0" class="graph" transform="scale(1 1) rotate(0) translate(4 207)">
<title>dependencies</title>
<polygon fill="white" stroke="transparent" points="-4,4 -4,-207 2170,-207 2170,4 -4,4"/>
<text text-anchor="start" x="1062.01" y="-42.4" font-family="Times-12" font-weight="bold" font-size="14.00">Legend</text>
<polygon fill="#ffffb3" stroke="transparent" points="849,-10 849,-30 869,-30 869,-10 849,-10"/>
<text text-anchor="start" x="872.63" y="-15.4" font-family="Times-12" font-size="14.00"> &#160;Declarations</text>
<polygon fill="#8dd3c7" stroke="transparent" points="962,-10 962,-30 982,-30 982,-10 962,-10"/>
<text text-anchor="start" x="985.73" y="-15.4" font-family="Times-12" font-size="14.00"> &#160;Module</text>
<polygon fill="#80b1d3" stroke="transparent" points="1048,-10 1048,-30 1068,-30 1068,-10 1048,-10"/>
<text text-anchor="start" x="1071.78" y="-15.4" font-family="Times-12" font-size="14.00"> &#160;Bootstrap</text>
<polygon fill="#fdb462" stroke="transparent" points="1145,-10 1145,-30 1165,-30 1165,-10 1145,-10"/>
<text text-anchor="start" x="1168.67" y="-15.4" font-family="Times-12" font-size="14.00"> &#160;Providers</text>
<polygon fill="#fb8072" stroke="transparent" points="1241,-10 1241,-30 1261,-30 1261,-10 1241,-10"/>
<text text-anchor="start" x="1264.73" y="-15.4" font-family="Times-12" font-size="14.00"> &#160;Exports</text>
<g id="clust1" class="cluster">
<title>cluster_AppModule</title>
<polygon fill="none" stroke="black" stroke-dasharray="1,5" points="8,-70 8,-195 2158,-195 2158,-70 8,-70"/>
</g>
<g id="clust3" class="cluster">
<title>cluster_AppModule_imports</title>
<polygon fill="none" stroke="black" points="16,-78 16,-130 2150,-130 2150,-78 16,-78"/>
</g>
<!-- AuthModule -->
<g id="node1" class="node">
<title>AuthModule</title>
<polygon fill="#8dd3c7" stroke="black" points="2141.55,-122 2138.55,-126 2117.55,-126 2114.55,-122 2054.45,-122 2054.45,-86 2141.55,-86 2141.55,-122"/>
<text text-anchor="middle" x="2098" y="-99.8" font-family="Times,serif" font-size="14.00">AuthModule</text>
</g>
<!-- AppModule -->
<g id="node19" class="node">
<title>AppModule</title>
<polygon fill="#8dd3c7" stroke="black" points="1109.66,-187 1106.66,-191 1085.66,-191 1082.66,-187 1026.34,-187 1026.34,-151 1109.66,-151 1109.66,-187"/>
<text text-anchor="middle" x="1068" y="-164.8" font-family="Times,serif" font-size="14.00">AppModule</text>
</g>
<!-- AuthModule&#45;&gt;AppModule -->
<g id="edge1" class="edge">
<title>AuthModule&#45;&gt;AppModule</title>
<path fill="none" stroke="black" d="M2098,-122.32C2098,-145.66 2098,-183 2098,-183 2098,-183 1119.97,-183 1119.97,-183"/>
<polygon fill="black" stroke="black" points="1119.97,-179.5 1109.97,-183 1119.97,-186.5 1119.97,-179.5"/>
</g>
<!-- BillingModule -->
<g id="node2" class="node">
<title>BillingModule</title>
<polygon fill="#8dd3c7" stroke="black" points="2036.45,-122 2033.45,-126 2012.45,-126 2009.45,-122 1937.55,-122 1937.55,-86 2036.45,-86 2036.45,-122"/>
<text text-anchor="middle" x="1987" y="-99.8" font-family="Times,serif" font-size="14.00">BillingModule</text>
</g>
<!-- BillingModule&#45;&gt;AppModule -->
<g id="edge2" class="edge">
<title>BillingModule&#45;&gt;AppModule</title>
<path fill="none" stroke="black" d="M1987,-122.16C1987,-144.35 1987,-179 1987,-179 1987,-179 1119.88,-179 1119.88,-179"/>
<polygon fill="black" stroke="black" points="1119.88,-175.5 1109.88,-179 1119.88,-182.5 1119.88,-175.5"/>
</g>
<!-- BranchModule -->
<g id="node3" class="node">
<title>BranchModule</title>
<polygon fill="#8dd3c7" stroke="black" points="1919.98,-122 1916.98,-126 1895.98,-126 1892.98,-122 1820.02,-122 1820.02,-86 1919.98,-86 1919.98,-122"/>
<text text-anchor="middle" x="1870" y="-99.8" font-family="Times,serif" font-size="14.00">BranchModule</text>
</g>
<!-- BranchModule&#45;&gt;AppModule -->
<g id="edge3" class="edge">
<title>BranchModule&#45;&gt;AppModule</title>
<path fill="none" stroke="black" d="M1870,-122.28C1870,-143.32 1870,-175 1870,-175 1870,-175 1119.71,-175 1119.71,-175"/>
<polygon fill="black" stroke="black" points="1119.71,-171.5 1109.71,-175 1119.71,-178.5 1119.71,-171.5"/>
</g>
<!-- CartModule -->
<g id="node4" class="node">
<title>CartModule</title>
<polygon fill="#8dd3c7" stroke="black" points="1801.65,-122 1798.65,-126 1777.65,-126 1774.65,-122 1718.35,-122 1718.35,-86 1801.65,-86 1801.65,-122"/>
<text text-anchor="middle" x="1760" y="-99.8" font-family="Times,serif" font-size="14.00">CartModule</text>
</g>
<!-- CartModule&#45;&gt;AppModule -->
<g id="edge4" class="edge">
<title>CartModule&#45;&gt;AppModule</title>
<path fill="none" stroke="black" d="M1760,-122.31C1760,-142.15 1760,-171 1760,-171 1760,-171 1119.73,-171 1119.73,-171"/>
<polygon fill="black" stroke="black" points="1119.73,-167.5 1109.73,-171 1119.73,-174.5 1119.73,-167.5"/>
</g>
<!-- CouponModule -->
<g id="node5" class="node">
<title>CouponModule</title>
<polygon fill="#8dd3c7" stroke="black" points="1699.89,-122 1696.89,-126 1675.89,-126 1672.89,-122 1596.11,-122 1596.11,-86 1699.89,-86 1699.89,-122"/>
<text text-anchor="middle" x="1648" y="-99.8" font-family="Times,serif" font-size="14.00">CouponModule</text>
</g>
<!-- CouponModule&#45;&gt;AppModule -->
<g id="edge5" class="edge">
<title>CouponModule&#45;&gt;AppModule</title>
<path fill="none" stroke="black" d="M1648,-122.22C1648,-140.83 1648,-167 1648,-167 1648,-167 1119.71,-167 1119.71,-167"/>
<polygon fill="black" stroke="black" points="1119.71,-163.5 1109.71,-167 1119.71,-170.5 1119.71,-163.5"/>
</g>
<!-- CustomerModule -->
<g id="node6" class="node">
<title>CustomerModule</title>
<polygon fill="#8dd3c7" stroke="black" points="1577.99,-122 1574.99,-126 1553.99,-126 1550.99,-122 1464.01,-122 1464.01,-86 1577.99,-86 1577.99,-122"/>
<text text-anchor="middle" x="1521" y="-99.8" font-family="Times,serif" font-size="14.00">CustomerModule</text>
</g>
<!-- CustomerModule&#45;&gt;AppModule -->
<g id="edge6" class="edge">
<title>CustomerModule&#45;&gt;AppModule</title>
<path fill="none" stroke="black" d="M1521,-122.02C1521,-139.37 1521,-163 1521,-163 1521,-163 1119.81,-163 1119.81,-163"/>
<polygon fill="black" stroke="black" points="1119.81,-159.5 1109.81,-163 1119.81,-166.5 1119.81,-159.5"/>
</g>
<!-- DeliveryModule -->
<g id="node7" class="node">
<title>DeliveryModule</title>
<polygon fill="#8dd3c7" stroke="black" points="1446.03,-122 1443.03,-126 1422.03,-126 1419.03,-122 1337.97,-122 1337.97,-86 1446.03,-86 1446.03,-122"/>
<text text-anchor="middle" x="1392" y="-99.8" font-family="Times,serif" font-size="14.00">DeliveryModule</text>
</g>
<!-- DeliveryModule&#45;&gt;AppModule -->
<g id="edge7" class="edge">
<title>DeliveryModule&#45;&gt;AppModule</title>
<path fill="none" stroke="black" d="M1392,-122.01C1392,-138.05 1392,-159 1392,-159 1392,-159 1119.69,-159 1119.69,-159"/>
<polygon fill="black" stroke="black" points="1119.69,-155.5 1109.69,-159 1119.69,-162.5 1119.69,-155.5"/>
</g>
<!-- EmployeeModule -->
<g id="node8" class="node">
<title>EmployeeModule</title>
<polygon fill="#8dd3c7" stroke="black" points="1320.31,-122 1317.31,-126 1296.31,-126 1293.31,-122 1203.69,-122 1203.69,-86 1320.31,-86 1320.31,-122"/>
<text text-anchor="middle" x="1262" y="-99.8" font-family="Times,serif" font-size="14.00">EmployeeModule</text>
</g>
<!-- EmployeeModule&#45;&gt;AppModule -->
<g id="edge8" class="edge">
<title>EmployeeModule&#45;&gt;AppModule</title>
<path fill="none" stroke="black" d="M1262,-122.12C1262,-136.78 1262,-155 1262,-155 1262,-155 1120.1,-155 1120.1,-155"/>
<polygon fill="black" stroke="black" points="1120.1,-151.5 1110.1,-155 1120.1,-158.5 1120.1,-151.5"/>
</g>
<!-- LocationModule -->
<g id="node9" class="node">
<title>LocationModule</title>
<polygon fill="#8dd3c7" stroke="black" points="1185.81,-122 1182.81,-126 1161.81,-126 1158.81,-122 1076.19,-122 1076.19,-86 1185.81,-86 1185.81,-122"/>
<text text-anchor="middle" x="1131" y="-99.8" font-family="Times,serif" font-size="14.00">LocationModule</text>
</g>
<!-- LocationModule&#45;&gt;AppModule -->
<g id="edge9" class="edge">
<title>LocationModule&#45;&gt;AppModule</title>
<path fill="none" stroke="black" d="M1093.09,-122.11C1093.09,-122.11 1093.09,-140.99 1093.09,-140.99"/>
<polygon fill="black" stroke="black" points="1089.59,-140.99 1093.09,-150.99 1096.59,-140.99 1089.59,-140.99"/>
</g>
<!-- MaterialModule -->
<g id="node10" class="node">
<title>MaterialModule</title>
<polygon fill="#8dd3c7" stroke="black" points="1058.47,-122 1055.47,-126 1034.47,-126 1031.47,-122 951.53,-122 951.53,-86 1058.47,-86 1058.47,-122"/>
<text text-anchor="middle" x="1005" y="-99.8" font-family="Times,serif" font-size="14.00">MaterialModule</text>
</g>
<!-- MaterialModule&#45;&gt;AppModule -->
<g id="edge10" class="edge">
<title>MaterialModule&#45;&gt;AppModule</title>
<path fill="none" stroke="black" d="M1042.33,-122.11C1042.33,-122.11 1042.33,-140.99 1042.33,-140.99"/>
<polygon fill="black" stroke="black" points="1038.83,-140.99 1042.33,-150.99 1045.83,-140.99 1038.83,-140.99"/>
</g>
<!-- OffersModule -->
<g id="node11" class="node">
<title>OffersModule</title>
<polygon fill="#8dd3c7" stroke="black" points="933.8,-122 930.8,-126 909.8,-126 906.8,-122 838.2,-122 838.2,-86 933.8,-86 933.8,-122"/>
<text text-anchor="middle" x="886" y="-99.8" font-family="Times,serif" font-size="14.00">OffersModule</text>
</g>
<!-- OffersModule&#45;&gt;AppModule -->
<g id="edge11" class="edge">
<title>OffersModule&#45;&gt;AppModule</title>
<path fill="none" stroke="black" d="M886,-122.12C886,-136.78 886,-155 886,-155 886,-155 1016.25,-155 1016.25,-155"/>
<polygon fill="black" stroke="black" points="1016.25,-158.5 1026.25,-155 1016.25,-151.5 1016.25,-158.5"/>
</g>
<!-- OrderModule -->
<g id="node12" class="node">
<title>OrderModule</title>
<polygon fill="#8dd3c7" stroke="black" points="820.19,-122 817.19,-126 796.19,-126 793.19,-122 727.81,-122 727.81,-86 820.19,-86 820.19,-122"/>
<text text-anchor="middle" x="774" y="-99.8" font-family="Times,serif" font-size="14.00">OrderModule</text>
</g>
<!-- OrderModule&#45;&gt;AppModule -->
<g id="edge12" class="edge">
<title>OrderModule&#45;&gt;AppModule</title>
<path fill="none" stroke="black" d="M774,-122.01C774,-138.05 774,-159 774,-159 774,-159 1016.19,-159 1016.19,-159"/>
<polygon fill="black" stroke="black" points="1016.19,-162.5 1026.19,-159 1016.19,-155.5 1016.19,-162.5"/>
</g>
<!-- PaymentModule -->
<g id="node13" class="node">
<title>PaymentModule</title>
<polygon fill="#8dd3c7" stroke="black" points="710.04,-122 707.04,-126 686.04,-126 683.04,-122 601.96,-122 601.96,-86 710.04,-86 710.04,-122"/>
<text text-anchor="middle" x="656" y="-99.8" font-family="Times,serif" font-size="14.00">PaymentModule</text>
</g>
<!-- PaymentModule&#45;&gt;AppModule -->
<g id="edge13" class="edge">
<title>PaymentModule&#45;&gt;AppModule</title>
<path fill="none" stroke="black" d="M656,-122.02C656,-139.37 656,-163 656,-163 656,-163 1016.23,-163 1016.23,-163"/>
<polygon fill="black" stroke="black" points="1016.23,-166.5 1026.23,-163 1016.23,-159.5 1016.23,-166.5"/>
</g>
<!-- ProductModule -->
<g id="node14" class="node">
<title>ProductModule</title>
<polygon fill="#8dd3c7" stroke="black" points="583.6,-122 580.6,-126 559.6,-126 556.6,-122 480.4,-122 480.4,-86 583.6,-86 583.6,-122"/>
<text text-anchor="middle" x="532" y="-99.8" font-family="Times,serif" font-size="14.00">ProductModule</text>
</g>
<!-- ProductModule&#45;&gt;AppModule -->
<g id="edge14" class="edge">
<title>ProductModule&#45;&gt;AppModule</title>
<path fill="none" stroke="black" d="M532,-122.22C532,-140.83 532,-167 532,-167 532,-167 1015.94,-167 1015.94,-167"/>
<polygon fill="black" stroke="black" points="1015.94,-170.5 1025.94,-167 1015.94,-163.5 1015.94,-170.5"/>
</g>
<!-- StockModule -->
<g id="node15" class="node">
<title>StockModule</title>
<polygon fill="#8dd3c7" stroke="black" points="462.94,-122 459.94,-126 438.94,-126 435.94,-122 371.06,-122 371.06,-86 462.94,-86 462.94,-122"/>
<text text-anchor="middle" x="417" y="-99.8" font-family="Times,serif" font-size="14.00">StockModule</text>
</g>
<!-- StockModule&#45;&gt;AppModule -->
<g id="edge15" class="edge">
<title>StockModule&#45;&gt;AppModule</title>
<path fill="none" stroke="black" d="M417,-122.31C417,-142.15 417,-171 417,-171 417,-171 1016.29,-171 1016.29,-171"/>
<polygon fill="black" stroke="black" points="1016.29,-174.5 1026.29,-171 1016.29,-167.5 1016.29,-174.5"/>
</g>
<!-- SupplierModule -->
<g id="node16" class="node">
<title>SupplierModule</title>
<polygon fill="#8dd3c7" stroke="black" points="353.49,-122 350.49,-126 329.49,-126 326.49,-122 246.51,-122 246.51,-86 353.49,-86 353.49,-122"/>
<text text-anchor="middle" x="300" y="-99.8" font-family="Times,serif" font-size="14.00">SupplierModule</text>
</g>
<!-- SupplierModule&#45;&gt;AppModule -->
<g id="edge16" class="edge">
<title>SupplierModule&#45;&gt;AppModule</title>
<path fill="none" stroke="black" d="M300,-122.28C300,-143.32 300,-175 300,-175 300,-175 1016.16,-175 1016.16,-175"/>
<polygon fill="black" stroke="black" points="1016.16,-178.5 1026.16,-175 1016.16,-171.5 1016.16,-178.5"/>
</g>
<!-- TicketModule -->
<g id="node17" class="node">
<title>TicketModule</title>
<polygon fill="#8dd3c7" stroke="black" points="228.81,-122 225.81,-126 204.81,-126 201.81,-122 133.19,-122 133.19,-86 228.81,-86 228.81,-122"/>
<text text-anchor="middle" x="181" y="-99.8" font-family="Times,serif" font-size="14.00">TicketModule</text>
</g>
<!-- TicketModule&#45;&gt;AppModule -->
<g id="edge17" class="edge">
<title>TicketModule&#45;&gt;AppModule</title>
<path fill="none" stroke="black" d="M181,-122.16C181,-144.35 181,-179 181,-179 181,-179 1016.11,-179 1016.11,-179"/>
<polygon fill="black" stroke="black" points="1016.11,-182.5 1026.11,-179 1016.11,-175.5 1016.11,-182.5"/>
</g>
<!-- UsersModule -->
<g id="node18" class="node">
<title>UsersModule</title>
<polygon fill="#8dd3c7" stroke="black" points="115.92,-122 112.92,-126 91.92,-126 88.92,-122 24.08,-122 24.08,-86 115.92,-86 115.92,-122"/>
<text text-anchor="middle" x="70" y="-99.8" font-family="Times,serif" font-size="14.00">UsersModule</text>
</g>
<!-- UsersModule&#45;&gt;AppModule -->
<g id="edge18" class="edge">
<title>UsersModule&#45;&gt;AppModule</title>
<path fill="none" stroke="black" d="M70,-122.32C70,-145.66 70,-183 70,-183 70,-183 1016.07,-183 1016.07,-183"/>
<polygon fill="black" stroke="black" points="1016.07,-186.5 1026.07,-183 1016.07,-179.5 1016.07,-186.5"/>
</g>
</g>
</svg>
