<?xml version="1.0" encoding="UTF-8" standalone="no"?>
<!DOCTYPE svg PUBLIC "-//W3C//DTD SVG 1.1//EN"
 "http://www.w3.org/Graphics/SVG/1.1/DTD/svg11.dtd">
<!-- Generated by graphviz version 2.47.0 (20210316.0004)
 -->
<!-- Title: dependencies Pages: 1 -->
<svg width="2778pt" height="211pt"
 viewBox="0.00 0.00 2778.00 211.00" xmlns="http://www.w3.org/2000/svg" xmlns:xlink="http://www.w3.org/1999/xlink">
<g id="graph0" class="graph" transform="scale(1 1) rotate(0) translate(4 207)">
<title>dependencies</title>
<polygon fill="white" stroke="transparent" points="-4,4 -4,-207 2774,-207 2774,4 -4,4"/>
<text text-anchor="start" x="1364.01" y="-42.4" font-family="Times-12" font-weight="bold" font-size="14.00">Legend</text>
<polygon fill="#ffffb3" stroke="transparent" points="1151,-10 1151,-30 1171,-30 1171,-10 1151,-10"/>
<text text-anchor="start" x="1174.63" y="-15.4" font-family="Times-12" font-size="14.00"> &#160;Declarations</text>
<polygon fill="#8dd3c7" stroke="transparent" points="1264,-10 1264,-30 1284,-30 1284,-10 1264,-10"/>
<text text-anchor="start" x="1287.73" y="-15.4" font-family="Times-12" font-size="14.00"> &#160;Module</text>
<polygon fill="#80b1d3" stroke="transparent" points="1350,-10 1350,-30 1370,-30 1370,-10 1350,-10"/>
<text text-anchor="start" x="1373.78" y="-15.4" font-family="Times-12" font-size="14.00"> &#160;Bootstrap</text>
<polygon fill="#fdb462" stroke="transparent" points="1447,-10 1447,-30 1467,-30 1467,-10 1447,-10"/>
<text text-anchor="start" x="1470.67" y="-15.4" font-family="Times-12" font-size="14.00"> &#160;Providers</text>
<polygon fill="#fb8072" stroke="transparent" points="1543,-10 1543,-30 1563,-30 1563,-10 1543,-10"/>
<text text-anchor="start" x="1566.73" y="-15.4" font-family="Times-12" font-size="14.00"> &#160;Exports</text>
<g id="clust1" class="cluster">
<title>cluster_AppModule</title>
<polygon fill="none" stroke="black" stroke-dasharray="1,5" points="8,-70 8,-195 2762,-195 2762,-70 8,-70"/>
</g>
<g id="clust3" class="cluster">
<title>cluster_AppModule_imports</title>
<polygon fill="none" stroke="black" points="16,-78 16,-130 2754,-130 2754,-78 16,-78"/>
</g>
<!-- AuthModule -->
<g id="node1" class="node">
<title>AuthModule</title>
<polygon fill="#8dd3c7" stroke="black" points="2745.55,-122 2742.55,-126 2721.55,-126 2718.55,-122 2658.45,-122 2658.45,-86 2745.55,-86 2745.55,-122"/>
<text text-anchor="middle" x="2702" y="-99.8" font-family="Times,serif" font-size="14.00">AuthModule</text>
</g>
<!-- AppModule -->
<g id="node24" class="node">
<title>AppModule</title>
<polygon fill="#8dd3c7" stroke="black" points="1426.66,-187 1423.66,-191 1402.66,-191 1399.66,-187 1343.34,-187 1343.34,-151 1426.66,-151 1426.66,-187"/>
<text text-anchor="middle" x="1385" y="-164.8" font-family="Times,serif" font-size="14.00">AppModule</text>
</g>
<!-- AuthModule&#45;&gt;AppModule -->
<g id="edge1" class="edge">
<title>AuthModule&#45;&gt;AppModule</title>
<path fill="none" stroke="black" d="M2702,-122.15C2702,-145.76 2702,-184 2702,-184 2702,-184 1436.96,-184 1436.96,-184"/>
<polygon fill="black" stroke="black" points="1436.96,-180.5 1426.96,-184 1436.96,-187.5 1436.96,-180.5"/>
</g>
<!-- BillingModule -->
<g id="node2" class="node">
<title>BillingModule</title>
<polygon fill="#8dd3c7" stroke="black" points="2640.45,-122 2637.45,-126 2616.45,-126 2613.45,-122 2541.55,-122 2541.55,-86 2640.45,-86 2640.45,-122"/>
<text text-anchor="middle" x="2591" y="-99.8" font-family="Times,serif" font-size="14.00">BillingModule</text>
</g>
<!-- BillingModule&#45;&gt;AppModule -->
<g id="edge2" class="edge">
<title>BillingModule&#45;&gt;AppModule</title>
<path fill="none" stroke="black" d="M2591,-122.09C2591,-145.13 2591,-182 2591,-182 2591,-182 1436.86,-182 1436.86,-182"/>
<polygon fill="black" stroke="black" points="1436.86,-178.5 1426.86,-182 1436.86,-185.5 1436.86,-178.5"/>
</g>
<!-- BranchModule -->
<g id="node3" class="node">
<title>BranchModule</title>
<polygon fill="#8dd3c7" stroke="black" points="2523.98,-122 2520.98,-126 2499.98,-126 2496.98,-122 2424.02,-122 2424.02,-86 2523.98,-86 2523.98,-122"/>
<text text-anchor="middle" x="2474" y="-99.8" font-family="Times,serif" font-size="14.00">BranchModule</text>
</g>
<!-- BranchModule&#45;&gt;AppModule -->
<g id="edge3" class="edge">
<title>BranchModule&#45;&gt;AppModule</title>
<path fill="none" stroke="black" d="M2474,-122.29C2474,-144.21 2474,-178 2474,-178 2474,-178 1436.69,-178 1436.69,-178"/>
<polygon fill="black" stroke="black" points="1436.69,-174.5 1426.69,-178 1436.69,-181.5 1436.69,-174.5"/>
</g>
<!-- CartModule -->
<g id="node4" class="node">
<title>CartModule</title>
<polygon fill="#8dd3c7" stroke="black" points="2405.65,-122 2402.65,-126 2381.65,-126 2378.65,-122 2322.35,-122 2322.35,-86 2405.65,-86 2405.65,-122"/>
<text text-anchor="middle" x="2364" y="-99.8" font-family="Times,serif" font-size="14.00">CartModule</text>
</g>
<!-- CartModule&#45;&gt;AppModule -->
<g id="edge4" class="edge">
<title>CartModule&#45;&gt;AppModule</title>
<path fill="none" stroke="black" d="M2364,-122.28C2364,-143.32 2364,-175 2364,-175 2364,-175 1436.75,-175 1436.75,-175"/>
<polygon fill="black" stroke="black" points="1436.75,-171.5 1426.75,-175 1436.75,-178.5 1436.75,-171.5"/>
</g>
<!-- CashierModule -->
<g id="node5" class="node">
<title>CashierModule</title>
<polygon fill="#8dd3c7" stroke="black" points="2304.31,-122 2301.31,-126 2280.31,-126 2277.31,-122 2201.69,-122 2201.69,-86 2304.31,-86 2304.31,-122"/>
<text text-anchor="middle" x="2253" y="-99.8" font-family="Times,serif" font-size="14.00">CashierModule</text>
</g>
<!-- CashierModule&#45;&gt;AppModule -->
<g id="edge5" class="edge">
<title>CashierModule&#45;&gt;AppModule</title>
<path fill="none" stroke="black" d="M2253,-122.22C2253,-142.37 2253,-172 2253,-172 2253,-172 1436.87,-172 1436.87,-172"/>
<polygon fill="black" stroke="black" points="1436.87,-168.5 1426.87,-172 1436.87,-175.5 1436.87,-168.5"/>
</g>
<!-- CouponModule -->
<g id="node6" class="node">
<title>CouponModule</title>
<polygon fill="#8dd3c7" stroke="black" points="2183.89,-122 2180.89,-126 2159.89,-126 2156.89,-122 2080.11,-122 2080.11,-86 2183.89,-86 2183.89,-122"/>
<text text-anchor="middle" x="2132" y="-99.8" font-family="Times,serif" font-size="14.00">CouponModule</text>
</g>
<!-- CouponModule&#45;&gt;AppModule -->
<g id="edge6" class="edge">
<title>CouponModule&#45;&gt;AppModule</title>
<path fill="none" stroke="black" d="M2132,-122.11C2132,-141.34 2132,-169 2132,-169 2132,-169 1436.76,-169 1436.76,-169"/>
<polygon fill="black" stroke="black" points="1436.76,-165.5 1426.76,-169 1436.76,-172.5 1436.76,-165.5"/>
</g>
<!-- CustomerModule -->
<g id="node7" class="node">
<title>CustomerModule</title>
<polygon fill="#8dd3c7" stroke="black" points="2061.99,-122 2058.99,-126 2037.99,-126 2034.99,-122 1948.01,-122 1948.01,-86 2061.99,-86 2061.99,-122"/>
<text text-anchor="middle" x="2005" y="-99.8" font-family="Times,serif" font-size="14.00">CustomerModule</text>
</g>
<!-- CustomerModule&#45;&gt;AppModule -->
<g id="edge7" class="edge">
<title>CustomerModule&#45;&gt;AppModule</title>
<path fill="none" stroke="black" d="M2005,-122.22C2005,-140.83 2005,-167 2005,-167 2005,-167 1437.13,-167 1437.13,-167"/>
<polygon fill="black" stroke="black" points="1437.13,-163.5 1427.13,-167 1437.13,-170.5 1437.13,-163.5"/>
</g>
<!-- DeliveryModule -->
<g id="node8" class="node">
<title>DeliveryModule</title>
<polygon fill="#8dd3c7" stroke="black" points="1930.03,-122 1927.03,-126 1906.03,-126 1903.03,-122 1821.97,-122 1821.97,-86 1930.03,-86 1930.03,-122"/>
<text text-anchor="middle" x="1876" y="-99.8" font-family="Times,serif" font-size="14.00">DeliveryModule</text>
</g>
<!-- DeliveryModule&#45;&gt;AppModule -->
<g id="edge8" class="edge">
<title>DeliveryModule&#45;&gt;AppModule</title>
<path fill="none" stroke="black" d="M1876,-122.02C1876,-139.37 1876,-163 1876,-163 1876,-163 1436.86,-163 1436.86,-163"/>
<polygon fill="black" stroke="black" points="1436.86,-159.5 1426.86,-163 1436.86,-166.5 1436.86,-159.5"/>
</g>
<!-- EmployeeModule -->
<g id="node9" class="node">
<title>EmployeeModule</title>
<polygon fill="#8dd3c7" stroke="black" points="1804.31,-122 1801.31,-126 1780.31,-126 1777.31,-122 1687.69,-122 1687.69,-86 1804.31,-86 1804.31,-122"/>
<text text-anchor="middle" x="1746" y="-99.8" font-family="Times,serif" font-size="14.00">EmployeeModule</text>
</g>
<!-- EmployeeModule&#45;&gt;AppModule -->
<g id="edge9" class="edge">
<title>EmployeeModule&#45;&gt;AppModule</title>
<path fill="none" stroke="black" d="M1746,-122.03C1746,-138.4 1746,-160 1746,-160 1746,-160 1436.76,-160 1436.76,-160"/>
<polygon fill="black" stroke="black" points="1436.76,-156.5 1426.76,-160 1436.76,-163.5 1436.76,-156.5"/>
</g>
<!-- LocationModule -->
<g id="node10" class="node">
<title>LocationModule</title>
<polygon fill="#8dd3c7" stroke="black" points="1669.81,-122 1666.81,-126 1645.81,-126 1642.81,-122 1560.19,-122 1560.19,-86 1669.81,-86 1669.81,-122"/>
<text text-anchor="middle" x="1615" y="-99.8" font-family="Times,serif" font-size="14.00">LocationModule</text>
</g>
<!-- LocationModule&#45;&gt;AppModule -->
<g id="edge10" class="edge">
<title>LocationModule&#45;&gt;AppModule</title>
<path fill="none" stroke="black" d="M1615,-122.24C1615,-137.57 1615,-157 1615,-157 1615,-157 1436.92,-157 1436.92,-157"/>
<polygon fill="black" stroke="black" points="1436.92,-153.5 1426.92,-157 1436.92,-160.5 1436.92,-153.5"/>
</g>
<!-- MailModule -->
<g id="node11" class="node">
<title>MailModule</title>
<polygon fill="#8dd3c7" stroke="black" points="1541.99,-122 1538.99,-126 1517.99,-126 1514.99,-122 1456.01,-122 1456.01,-86 1541.99,-86 1541.99,-122"/>
<text text-anchor="middle" x="1499" y="-99.8" font-family="Times,serif" font-size="14.00">MailModule</text>
</g>
<!-- MailModule&#45;&gt;AppModule -->
<g id="edge11" class="edge">
<title>MailModule&#45;&gt;AppModule</title>
<path fill="none" stroke="black" d="M1499,-122.05C1499,-136.37 1499,-154 1499,-154 1499,-154 1436.8,-154 1436.8,-154"/>
<polygon fill="black" stroke="black" points="1436.8,-150.5 1426.8,-154 1436.8,-157.5 1436.8,-150.5"/>
</g>
<!-- MaterialModule -->
<g id="node12" class="node">
<title>MaterialModule</title>
<polygon fill="#8dd3c7" stroke="black" points="1438.47,-122 1435.47,-126 1414.47,-126 1411.47,-122 1331.53,-122 1331.53,-86 1438.47,-86 1438.47,-122"/>
<text text-anchor="middle" x="1385" y="-99.8" font-family="Times,serif" font-size="14.00">MaterialModule</text>
</g>
<!-- MaterialModule&#45;&gt;AppModule -->
<g id="edge12" class="edge">
<title>MaterialModule&#45;&gt;AppModule</title>
<path fill="none" stroke="black" d="M1385,-122.11C1385,-122.11 1385,-140.99 1385,-140.99"/>
<polygon fill="black" stroke="black" points="1381.5,-140.99 1385,-150.99 1388.5,-140.99 1381.5,-140.99"/>
</g>
<!-- NotificationsModule -->
<g id="node13" class="node">
<title>NotificationsModule</title>
<polygon fill="#8dd3c7" stroke="black" points="1313.14,-122 1310.14,-126 1289.14,-126 1286.14,-122 1180.86,-122 1180.86,-86 1313.14,-86 1313.14,-122"/>
<text text-anchor="middle" x="1247" y="-99.8" font-family="Times,serif" font-size="14.00">NotificationsModule</text>
</g>
<!-- NotificationsModule&#45;&gt;AppModule -->
<g id="edge13" class="edge">
<title>NotificationsModule&#45;&gt;AppModule</title>
<path fill="none" stroke="black" d="M1247,-122.05C1247,-136.37 1247,-154 1247,-154 1247,-154 1333.22,-154 1333.22,-154"/>
<polygon fill="black" stroke="black" points="1333.22,-157.5 1343.22,-154 1333.22,-150.5 1333.22,-157.5"/>
</g>
<!-- OffersModule -->
<g id="node14" class="node">
<title>OffersModule</title>
<polygon fill="#8dd3c7" stroke="black" points="1162.8,-122 1159.8,-126 1138.8,-126 1135.8,-122 1067.2,-122 1067.2,-86 1162.8,-86 1162.8,-122"/>
<text text-anchor="middle" x="1115" y="-99.8" font-family="Times,serif" font-size="14.00">OffersModule</text>
</g>
<!-- OffersModule&#45;&gt;AppModule -->
<g id="edge14" class="edge">
<title>OffersModule&#45;&gt;AppModule</title>
<path fill="none" stroke="black" d="M1115,-122.24C1115,-137.57 1115,-157 1115,-157 1115,-157 1333.11,-157 1333.11,-157"/>
<polygon fill="black" stroke="black" points="1333.11,-160.5 1343.11,-157 1333.11,-153.5 1333.11,-160.5"/>
</g>
<!-- OrderModule -->
<g id="node15" class="node">
<title>OrderModule</title>
<polygon fill="#8dd3c7" stroke="black" points="1049.19,-122 1046.19,-126 1025.19,-126 1022.19,-122 956.81,-122 956.81,-86 1049.19,-86 1049.19,-122"/>
<text text-anchor="middle" x="1003" y="-99.8" font-family="Times,serif" font-size="14.00">OrderModule</text>
</g>
<!-- OrderModule&#45;&gt;AppModule -->
<g id="edge15" class="edge">
<title>OrderModule&#45;&gt;AppModule</title>
<path fill="none" stroke="black" d="M1003,-122.03C1003,-138.4 1003,-160 1003,-160 1003,-160 1333.03,-160 1333.03,-160"/>
<polygon fill="black" stroke="black" points="1333.03,-163.5 1343.03,-160 1333.03,-156.5 1333.03,-163.5"/>
</g>
<!-- PaymentModule -->
<g id="node16" class="node">
<title>PaymentModule</title>
<polygon fill="#8dd3c7" stroke="black" points="939.04,-122 936.04,-126 915.04,-126 912.04,-122 830.96,-122 830.96,-86 939.04,-86 939.04,-122"/>
<text text-anchor="middle" x="885" y="-99.8" font-family="Times,serif" font-size="14.00">PaymentModule</text>
</g>
<!-- PaymentModule&#45;&gt;AppModule -->
<g id="edge16" class="edge">
<title>PaymentModule&#45;&gt;AppModule</title>
<path fill="none" stroke="black" d="M885,-122.02C885,-139.37 885,-163 885,-163 885,-163 1333.23,-163 1333.23,-163"/>
<polygon fill="black" stroke="black" points="1333.23,-166.5 1343.23,-163 1333.23,-159.5 1333.23,-166.5"/>
</g>
<!-- PaypalModule -->
<g id="node17" class="node">
<title>PaypalModule</title>
<polygon fill="#8dd3c7" stroke="black" points="812.65,-122 809.65,-126 788.65,-126 785.65,-122 715.35,-122 715.35,-86 812.65,-86 812.65,-122"/>
<text text-anchor="middle" x="764" y="-99.8" font-family="Times,serif" font-size="14.00">PaypalModule</text>
</g>
<!-- PaypalModule&#45;&gt;AppModule -->
<g id="edge17" class="edge">
<title>PaypalModule&#45;&gt;AppModule</title>
<path fill="none" stroke="black" d="M764,-122.22C764,-140.83 764,-167 764,-167 764,-167 1333.29,-167 1333.29,-167"/>
<polygon fill="black" stroke="black" points="1333.29,-170.5 1343.29,-167 1333.29,-163.5 1333.29,-170.5"/>
</g>
<!-- ProductModule -->
<g id="node18" class="node">
<title>ProductModule</title>
<polygon fill="#8dd3c7" stroke="black" points="697.6,-122 694.6,-126 673.6,-126 670.6,-122 594.4,-122 594.4,-86 697.6,-86 697.6,-122"/>
<text text-anchor="middle" x="646" y="-99.8" font-family="Times,serif" font-size="14.00">ProductModule</text>
</g>
<!-- ProductModule&#45;&gt;AppModule -->
<g id="edge18" class="edge">
<title>ProductModule&#45;&gt;AppModule</title>
<path fill="none" stroke="black" d="M646,-122.11C646,-141.34 646,-169 646,-169 646,-169 1333.15,-169 1333.15,-169"/>
<polygon fill="black" stroke="black" points="1333.15,-172.5 1343.15,-169 1333.15,-165.5 1333.15,-172.5"/>
</g>
<!-- StockModule -->
<g id="node19" class="node">
<title>StockModule</title>
<polygon fill="#8dd3c7" stroke="black" points="576.94,-122 573.94,-126 552.94,-126 549.94,-122 485.06,-122 485.06,-86 576.94,-86 576.94,-122"/>
<text text-anchor="middle" x="531" y="-99.8" font-family="Times,serif" font-size="14.00">StockModule</text>
</g>
<!-- StockModule&#45;&gt;AppModule -->
<g id="edge19" class="edge">
<title>StockModule&#45;&gt;AppModule</title>
<path fill="none" stroke="black" d="M531,-122.22C531,-142.37 531,-172 531,-172 531,-172 1333.23,-172 1333.23,-172"/>
<polygon fill="black" stroke="black" points="1333.23,-175.5 1343.23,-172 1333.23,-168.5 1333.23,-175.5"/>
</g>
<!-- SupplierModule -->
<g id="node20" class="node">
<title>SupplierModule</title>
<polygon fill="#8dd3c7" stroke="black" points="467.49,-122 464.49,-126 443.49,-126 440.49,-122 360.51,-122 360.51,-86 467.49,-86 467.49,-122"/>
<text text-anchor="middle" x="414" y="-99.8" font-family="Times,serif" font-size="14.00">SupplierModule</text>
</g>
<!-- SupplierModule&#45;&gt;AppModule -->
<g id="edge20" class="edge">
<title>SupplierModule&#45;&gt;AppModule</title>
<path fill="none" stroke="black" d="M414,-122.28C414,-143.32 414,-175 414,-175 414,-175 1333.28,-175 1333.28,-175"/>
<polygon fill="black" stroke="black" points="1333.28,-178.5 1343.28,-175 1333.28,-171.5 1333.28,-178.5"/>
</g>
<!-- TicketModule -->
<g id="node21" class="node">
<title>TicketModule</title>
<polygon fill="#8dd3c7" stroke="black" points="342.81,-122 339.81,-126 318.81,-126 315.81,-122 247.19,-122 247.19,-86 342.81,-86 342.81,-122"/>
<text text-anchor="middle" x="295" y="-99.8" font-family="Times,serif" font-size="14.00">TicketModule</text>
</g>
<!-- TicketModule&#45;&gt;AppModule -->
<g id="edge21" class="edge">
<title>TicketModule&#45;&gt;AppModule</title>
<path fill="none" stroke="black" d="M295,-122.29C295,-144.21 295,-178 295,-178 295,-178 1333.27,-178 1333.27,-178"/>
<polygon fill="black" stroke="black" points="1333.27,-181.5 1343.27,-178 1333.27,-174.5 1333.27,-181.5"/>
</g>
<!-- UsersModule -->
<g id="node22" class="node">
<title>UsersModule</title>
<polygon fill="#8dd3c7" stroke="black" points="229.92,-122 226.92,-126 205.92,-126 202.92,-122 138.08,-122 138.08,-86 229.92,-86 229.92,-122"/>
<text text-anchor="middle" x="184" y="-99.8" font-family="Times,serif" font-size="14.00">UsersModule</text>
</g>
<!-- UsersModule&#45;&gt;AppModule -->
<g id="edge22" class="edge">
<title>UsersModule&#45;&gt;AppModule</title>
<path fill="none" stroke="black" d="M184,-122.09C184,-145.13 184,-182 184,-182 184,-182 1333.31,-182 1333.31,-182"/>
<polygon fill="black" stroke="black" points="1333.31,-185.5 1343.31,-182 1333.31,-178.5 1333.31,-185.5"/>
</g>
<!-- WalletModule -->
<g id="node23" class="node">
<title>WalletModule</title>
<polygon fill="#8dd3c7" stroke="black" points="120.37,-122 117.37,-126 96.37,-126 93.37,-122 23.63,-122 23.63,-86 120.37,-86 120.37,-122"/>
<text text-anchor="middle" x="72" y="-99.8" font-family="Times,serif" font-size="14.00">WalletModule</text>
</g>
<!-- WalletModule&#45;&gt;AppModule -->
<g id="edge23" class="edge">
<title>WalletModule&#45;&gt;AppModule</title>
<path fill="none" stroke="black" d="M72,-122.15C72,-145.76 72,-184 72,-184 72,-184 1333.17,-184 1333.17,-184"/>
<polygon fill="black" stroke="black" points="1333.17,-187.5 1343.17,-184 1333.17,-180.5 1333.17,-187.5"/>
</g>
</g>
</svg>
