<?xml version="1.0" encoding="UTF-8" standalone="no"?>
<!DOCTYPE svg PUBLIC "-//W3C//DTD SVG 1.1//EN"
 "http://www.w3.org/Graphics/SVG/1.1/DTD/svg11.dtd">
<!-- Generated by graphviz version 2.47.0 (20210316.0004)
 -->
<!-- Title: dependencies Pages: 1 -->
<svg width="806pt" height="211pt"
 viewBox="0.00 0.00 806.00 211.00" xmlns="http://www.w3.org/2000/svg" xmlns:xlink="http://www.w3.org/1999/xlink">
<g id="graph0" class="graph" transform="scale(1 1) rotate(0) translate(4 207)">
<title>dependencies</title>
<polygon fill="white" stroke="transparent" points="-4,4 -4,-207 802,-207 802,4 -4,4"/>
<text text-anchor="start" x="378.01" y="-42.4" font-family="Times-12" font-weight="bold" font-size="14.00">Legend</text>
<polygon fill="#ffffb3" stroke="transparent" points="165,-10 165,-30 185,-30 185,-10 165,-10"/>
<text text-anchor="start" x="188.63" y="-15.4" font-family="Times-12" font-size="14.00"> &#160;Declarations</text>
<polygon fill="#8dd3c7" stroke="transparent" points="278,-10 278,-30 298,-30 298,-10 278,-10"/>
<text text-anchor="start" x="301.73" y="-15.4" font-family="Times-12" font-size="14.00"> &#160;Module</text>
<polygon fill="#80b1d3" stroke="transparent" points="364,-10 364,-30 384,-30 384,-10 364,-10"/>
<text text-anchor="start" x="387.78" y="-15.4" font-family="Times-12" font-size="14.00"> &#160;Bootstrap</text>
<polygon fill="#fdb462" stroke="transparent" points="461,-10 461,-30 481,-30 481,-10 461,-10"/>
<text text-anchor="start" x="484.67" y="-15.4" font-family="Times-12" font-size="14.00"> &#160;Providers</text>
<polygon fill="#fb8072" stroke="transparent" points="557,-10 557,-30 577,-30 577,-10 557,-10"/>
<text text-anchor="start" x="580.73" y="-15.4" font-family="Times-12" font-size="14.00"> &#160;Exports</text>
<g id="clust1" class="cluster">
<title>cluster_BillingModule</title>
<polygon fill="none" stroke="black" stroke-dasharray="1,5" points="8,-70 8,-195 790,-195 790,-70 8,-70"/>
</g>
<g id="clust3" class="cluster">
<title>cluster_BillingModule_imports</title>
<polygon fill="none" stroke="black" points="540,-78 540,-130 782,-130 782,-78 540,-78"/>
</g>
<g id="clust6" class="cluster">
<title>cluster_BillingModule_providers</title>
<polygon fill="none" stroke="black" points="16,-78 16,-130 532,-130 532,-78 16,-78"/>
</g>
<!-- EmployeeModule -->
<g id="node1" class="node">
<title>EmployeeModule</title>
<polygon fill="#8dd3c7" stroke="black" points="774.31,-122 771.31,-126 750.31,-126 747.31,-122 657.69,-122 657.69,-86 774.31,-86 774.31,-122"/>
<text text-anchor="middle" x="716" y="-99.8" font-family="Times,serif" font-size="14.00">EmployeeModule</text>
</g>
<!-- BillingModule -->
<g id="node3" class="node">
<title>BillingModule</title>
<polygon fill="#8dd3c7" stroke="black" points="506.45,-187 503.45,-191 482.45,-191 479.45,-187 407.55,-187 407.55,-151 506.45,-151 506.45,-187"/>
<text text-anchor="middle" x="457" y="-164.8" font-family="Times,serif" font-size="14.00">BillingModule</text>
</g>
<!-- EmployeeModule&#45;&gt;BillingModule -->
<g id="edge1" class="edge">
<title>EmployeeModule&#45;&gt;BillingModule</title>
<path fill="none" stroke="black" d="M716,-122.28C716,-143.32 716,-175 716,-175 716,-175 516.33,-175 516.33,-175"/>
<polygon fill="black" stroke="black" points="516.33,-171.5 506.33,-175 516.33,-178.5 516.33,-171.5"/>
</g>
<!-- UsersModule -->
<g id="node2" class="node">
<title>UsersModule</title>
<polygon fill="#8dd3c7" stroke="black" points="639.92,-122 636.92,-126 615.92,-126 612.92,-122 548.08,-122 548.08,-86 639.92,-86 639.92,-122"/>
<text text-anchor="middle" x="594" y="-99.8" font-family="Times,serif" font-size="14.00">UsersModule</text>
</g>
<!-- UsersModule&#45;&gt;BillingModule -->
<g id="edge2" class="edge">
<title>UsersModule&#45;&gt;BillingModule</title>
<path fill="none" stroke="black" d="M594,-122.02C594,-139.37 594,-163 594,-163 594,-163 516.46,-163 516.46,-163"/>
<polygon fill="black" stroke="black" points="516.46,-159.5 506.46,-163 516.46,-166.5 516.46,-159.5"/>
</g>
<!-- BillingService -->
<g id="node4" class="node">
<title>BillingService</title>
<ellipse fill="#fdb462" stroke="black" cx="457" cy="-104" rx="66.65" ry="18"/>
<text text-anchor="middle" x="457" y="-99.8" font-family="Times,serif" font-size="14.00">BillingService</text>
</g>
<!-- BillingService&#45;&gt;BillingModule -->
<g id="edge3" class="edge">
<title>BillingService&#45;&gt;BillingModule</title>
<path fill="none" stroke="black" d="M457,-122.11C457,-122.11 457,-140.99 457,-140.99"/>
<polygon fill="black" stroke="black" points="453.5,-140.99 457,-150.99 460.5,-140.99 453.5,-140.99"/>
</g>
<!-- InvoiceService -->
<g id="node5" class="node">
<title>InvoiceService</title>
<ellipse fill="#fdb462" stroke="black" cx="303" cy="-104" rx="68.9" ry="18"/>
<text text-anchor="middle" x="303" y="-99.8" font-family="Times,serif" font-size="14.00">InvoiceService</text>
</g>
<!-- InvoiceService&#45;&gt;BillingModule -->
<g id="edge4" class="edge">
<title>InvoiceService&#45;&gt;BillingModule</title>
<path fill="none" stroke="black" d="M303,-122.02C303,-139.37 303,-163 303,-163 303,-163 397.43,-163 397.43,-163"/>
<polygon fill="black" stroke="black" points="397.43,-166.5 407.43,-163 397.43,-159.5 397.43,-166.5"/>
</g>
<!-- SpendingAuthService -->
<g id="node6" class="node">
<title>SpendingAuthService</title>
<ellipse fill="#fdb462" stroke="black" cx="120" cy="-104" rx="95.57" ry="18"/>
<text text-anchor="middle" x="120" y="-99.8" font-family="Times,serif" font-size="14.00">SpendingAuthService</text>
</g>
<!-- SpendingAuthService&#45;&gt;BillingModule -->
<g id="edge5" class="edge">
<title>SpendingAuthService&#45;&gt;BillingModule</title>
<path fill="none" stroke="black" d="M120,-122.28C120,-143.32 120,-175 120,-175 120,-175 397.64,-175 397.64,-175"/>
<polygon fill="black" stroke="black" points="397.64,-178.5 407.64,-175 397.64,-171.5 397.64,-178.5"/>
</g>
</g>
</svg>
