<?xml version="1.0" encoding="UTF-8" standalone="no"?>
<!DOCTYPE svg PUBLIC "-//W3C//DTD SVG 1.1//EN"
 "http://www.w3.org/Graphics/SVG/1.1/DTD/svg11.dtd">
<!-- Generated by graphviz version 2.47.0 (20210316.0004)
 -->
<!-- Title: dependencies Pages: 1 -->
<svg width="504pt" height="284pt"
 viewBox="0.00 0.00 504.00 284.00" xmlns="http://www.w3.org/2000/svg" xmlns:xlink="http://www.w3.org/1999/xlink">
<g id="graph0" class="graph" transform="scale(1 1) rotate(0) translate(4 280)">
<title>dependencies</title>
<polygon fill="white" stroke="transparent" points="-4,4 -4,-280 500,-280 500,4 -4,4"/>
<text text-anchor="start" x="227.01" y="-42.4" font-family="Times-12" font-weight="bold" font-size="14.00">Legend</text>
<polygon fill="#ffffb3" stroke="transparent" points="14,-10 14,-30 34,-30 34,-10 14,-10"/>
<text text-anchor="start" x="37.63" y="-15.4" font-family="Times-12" font-size="14.00"> &#160;Declarations</text>
<polygon fill="#8dd3c7" stroke="transparent" points="127,-10 127,-30 147,-30 147,-10 127,-10"/>
<text text-anchor="start" x="150.73" y="-15.4" font-family="Times-12" font-size="14.00"> &#160;Module</text>
<polygon fill="#80b1d3" stroke="transparent" points="213,-10 213,-30 233,-30 233,-10 213,-10"/>
<text text-anchor="start" x="236.78" y="-15.4" font-family="Times-12" font-size="14.00"> &#160;Bootstrap</text>
<polygon fill="#fdb462" stroke="transparent" points="310,-10 310,-30 330,-30 330,-10 310,-10"/>
<text text-anchor="start" x="333.67" y="-15.4" font-family="Times-12" font-size="14.00"> &#160;Providers</text>
<polygon fill="#fb8072" stroke="transparent" points="406,-10 406,-30 426,-30 426,-10 406,-10"/>
<text text-anchor="start" x="429.73" y="-15.4" font-family="Times-12" font-size="14.00"> &#160;Exports</text>
<g id="clust1" class="cluster">
<title>cluster_OffersModule</title>
<polygon fill="none" stroke="black" stroke-dasharray="1,5" points="44,-70 44,-268 452,-268 452,-70 44,-70"/>
</g>
<g id="clust4" class="cluster">
<title>cluster_OffersModule_exports</title>
<polygon fill="none" stroke="black" points="209,-208 209,-260 323,-260 323,-208 209,-208"/>
</g>
<g id="clust3" class="cluster">
<title>cluster_OffersModule_imports</title>
<polygon fill="none" stroke="black" points="206,-78 206,-130 444,-130 444,-78 206,-78"/>
</g>
<g id="clust6" class="cluster">
<title>cluster_OffersModule_providers</title>
<polygon fill="none" stroke="black" points="52,-78 52,-130 198,-130 198,-78 52,-78"/>
</g>
<!-- BranchModule -->
<g id="node1" class="node">
<title>BranchModule</title>
<polygon fill="#8dd3c7" stroke="black" points="435.98,-122 432.98,-126 411.98,-126 408.98,-122 336.02,-122 336.02,-86 435.98,-86 435.98,-122"/>
<text text-anchor="middle" x="386" y="-99.8" font-family="Times,serif" font-size="14.00">BranchModule</text>
</g>
<!-- OffersModule -->
<g id="node3" class="node">
<title>OffersModule</title>
<polygon fill="#8dd3c7" stroke="black" points="313.8,-187 310.8,-191 289.8,-191 286.8,-187 218.2,-187 218.2,-151 313.8,-151 313.8,-187"/>
<text text-anchor="middle" x="266" y="-164.8" font-family="Times,serif" font-size="14.00">OffersModule</text>
</g>
<!-- BranchModule&#45;&gt;OffersModule -->
<g id="edge1" class="edge">
<title>BranchModule&#45;&gt;OffersModule</title>
<path fill="none" stroke="black" d="M386,-122.11C386,-141.34 386,-169 386,-169 386,-169 323.77,-169 323.77,-169"/>
<polygon fill="black" stroke="black" points="323.77,-165.5 313.77,-169 323.77,-172.5 323.77,-165.5"/>
</g>
<!-- ProductModule -->
<g id="node2" class="node">
<title>ProductModule</title>
<polygon fill="#8dd3c7" stroke="black" points="317.6,-122 314.6,-126 293.6,-126 290.6,-122 214.4,-122 214.4,-86 317.6,-86 317.6,-122"/>
<text text-anchor="middle" x="266" y="-99.8" font-family="Times,serif" font-size="14.00">ProductModule</text>
</g>
<!-- ProductModule&#45;&gt;OffersModule -->
<g id="edge2" class="edge">
<title>ProductModule&#45;&gt;OffersModule</title>
<path fill="none" stroke="black" d="M266,-122.11C266,-122.11 266,-140.99 266,-140.99"/>
<polygon fill="black" stroke="black" points="262.5,-140.99 266,-150.99 269.5,-140.99 262.5,-140.99"/>
</g>
<!-- OffersService  -->
<g id="node4" class="node">
<title>OffersService </title>
<polygon fill="#fb8072" stroke="black" points="314.73,-252 217.27,-252 217.27,-216 314.73,-216 314.73,-252"/>
<text text-anchor="middle" x="266" y="-229.8" font-family="Times,serif" font-size="14.00">OffersService </text>
</g>
<!-- OffersModule&#45;&gt;OffersService  -->
<g id="edge3" class="edge">
<title>OffersModule&#45;&gt;OffersService </title>
<path fill="none" stroke="black" stroke-dasharray="5,2" d="M266,-187.11C266,-187.11 266,-205.99 266,-205.99"/>
<polygon fill="black" stroke="black" points="262.5,-205.99 266,-215.99 269.5,-205.99 262.5,-205.99"/>
</g>
<!-- OffersService -->
<g id="node5" class="node">
<title>OffersService</title>
<ellipse fill="#fdb462" stroke="black" cx="125" cy="-104" rx="64.8" ry="18"/>
<text text-anchor="middle" x="125" y="-99.8" font-family="Times,serif" font-size="14.00">OffersService</text>
</g>
<!-- OffersService&#45;&gt;OffersModule -->
<g id="edge4" class="edge">
<title>OffersService&#45;&gt;OffersModule</title>
<path fill="none" stroke="black" d="M125,-122.11C125,-141.34 125,-169 125,-169 125,-169 208.26,-169 208.26,-169"/>
<polygon fill="black" stroke="black" points="208.26,-172.5 218.26,-169 208.26,-165.5 208.26,-172.5"/>
</g>
</g>
</svg>
